M48
; DRILL file KiCad 10.0.1 date 2026-05-03T22:33:09
; FORMAT={-:-/ absolute / metric / decimal}
; #@! TF.CreationDate,2026-05-03T22:33:09-06:00
; #@! TF.GenerationSoftware,Kicad,Pcbnew,10.0.1
; #@! TF.FileFunction,Plated,1,2,PTH
FMAT,2
METRIC
; #@! TA.AperFunction,Plated,PTH,ViaDrill
T1C0.300
; #@! TA.AperFunction,Plated,PTH,ComponentDrill
T2C0.600
; #@! TA.AperFunction,Plated,PTH,ComponentDrill
T3C0.950
; #@! TA.AperFunction,Plated,PTH,ComponentDrill
T4C1.000
%
G90
G05
T1
X104.527Y-99.907
X107.067Y-100.415
X109.607Y-89.834
X112.655Y-86.191
X113.163Y-84.159
X114.687Y-68.411
X115.703Y-84.667
X118.243Y-95.843
X119.767Y-73.999
X120.783Y-97.275
X122.307Y-82.635
X122.307Y-97.275
X122.307Y-102.955
X122.815Y-100.415
X125.355Y-90.763
X127.387Y-76.539
X127.387Y-84.159
X127.387Y-91.779
X130.435Y-100.923
X132.975Y-84.159
X133.483Y-69.427
X133.991Y-74.507
X135.007Y-97.367
X139.071Y-79.587
X139.071Y-86.191
X142.627Y-75.015
X144.151Y-70.951
X144.151Y-81.619
X145.167Y-77.607
X147.199Y-75.757
X147.707Y-73.999
X149.739Y-95.843
X150.755Y-79.007
X151.263Y-65.871
X152.279Y-92.795
X153.803Y-72.983
X156.343Y-72.983
X157.359Y-77.555
X160.387Y-79.078
X163.963Y-84.159
X164.471Y-81.619
T3
X109.254Y-102.413
X111.754Y-102.413
X113.337Y-65.425
X114.254Y-102.413
X115.837Y-65.425
X116.754Y-102.413
X118.337Y-65.425
X120.837Y-65.425
X123.337Y-65.425
T4
X103.397Y-98.781
X103.397Y-101.321
X103.397Y-103.861
X103.397Y-106.401
X105.404Y-69.215
X105.404Y-71.755
X105.404Y-74.295
X105.404Y-76.835
X107.944Y-69.215
X107.944Y-71.755
X107.944Y-74.295
X107.944Y-76.835
X134.512Y-107.366
X137.052Y-107.366
X139.592Y-107.366
X142.132Y-107.366
X144.672Y-107.366
X147.212Y-107.366
X147.999Y-61.443
X149.752Y-107.366
X150.499Y-61.443
X152.292Y-107.366
X158.794Y-60.731
X158.916Y-104.961
X161.294Y-60.731
X161.416Y-104.961
T2
G00X102.996Y-85.664
M15
G01X102.396Y-85.664
M16
G05
G00X102.996Y-94.304
M15
G01X102.396Y-94.304
M16
G05
G00X107.426Y-85.664
M15
G01X106.326Y-85.664
M16
G05
G00X107.426Y-94.304
M15
G01X106.326Y-94.304
M16
G05
M30
