%TF.GenerationSoftware,KiCad,Pcbnew,9.0.7*%
%TF.CreationDate,2026-04-28T14:54:49-06:00*%
%TF.ProjectId,Phil_lab_65_Avila,5068696c-5f6c-4616-925f-36355f417669,rev?*%
%TF.SameCoordinates,Original*%
%TF.FileFunction,Copper,L1,Top*%
%TF.FilePolarity,Positive*%
%FSLAX46Y46*%
G04 Gerber Fmt 4.6, Leading zero omitted, Abs format (unit mm)*
G04 Created by KiCad (PCBNEW 9.0.7) date 2026-04-28 14:54:49*
%MOMM*%
%LPD*%
G01*
G04 APERTURE LIST*
G04 Aperture macros list*
%AMRoundRect*
0 Rectangle with rounded corners*
0 $1 Rounding radius*
0 $2 $3 $4 $5 $6 $7 $8 $9 X,Y pos of 4 corners*
0 Add a 4 corners polygon primitive as box body*
4,1,4,$2,$3,$4,$5,$6,$7,$8,$9,$2,$3,0*
0 Add four circle primitives for the rounded corners*
1,1,$1+$1,$2,$3*
1,1,$1+$1,$4,$5*
1,1,$1+$1,$6,$7*
1,1,$1+$1,$8,$9*
0 Add four rect primitives between the rounded corners*
20,1,$1+$1,$2,$3,$4,$5,0*
20,1,$1+$1,$4,$5,$6,$7,0*
20,1,$1+$1,$6,$7,$8,$9,0*
20,1,$1+$1,$8,$9,$2,$3,0*%
G04 Aperture macros list end*
%TA.AperFunction,SMDPad,CuDef*%
%ADD10RoundRect,0.075000X-0.075000X-0.662500X0.075000X-0.662500X0.075000X0.662500X-0.075000X0.662500X0*%
%TD*%
%TA.AperFunction,SMDPad,CuDef*%
%ADD11RoundRect,0.075000X-0.662500X-0.075000X0.662500X-0.075000X0.662500X0.075000X-0.662500X0.075000X0*%
%TD*%
%TA.AperFunction,SMDPad,CuDef*%
%ADD12R,0.600000X1.750000*%
%TD*%
%TA.AperFunction,SMDPad,CuDef*%
%ADD13R,1.750000X0.600000*%
%TD*%
%TA.AperFunction,SMDPad,CuDef*%
%ADD14R,0.800000X1.100000*%
%TD*%
%TA.AperFunction,SMDPad,CuDef*%
%ADD15R,0.900000X1.700000*%
%TD*%
%TA.AperFunction,SMDPad,CuDef*%
%ADD16RoundRect,0.135000X-0.135000X-0.185000X0.135000X-0.185000X0.135000X0.185000X-0.135000X0.185000X0*%
%TD*%
%TA.AperFunction,SMDPad,CuDef*%
%ADD17RoundRect,0.250000X0.450000X0.350000X-0.450000X0.350000X-0.450000X-0.350000X0.450000X-0.350000X0*%
%TD*%
%TA.AperFunction,SMDPad,CuDef*%
%ADD18RoundRect,0.375000X-0.625000X-0.375000X0.625000X-0.375000X0.625000X0.375000X-0.625000X0.375000X0*%
%TD*%
%TA.AperFunction,SMDPad,CuDef*%
%ADD19RoundRect,0.500000X-0.500000X-1.400000X0.500000X-1.400000X0.500000X1.400000X-0.500000X1.400000X0*%
%TD*%
%TA.AperFunction,SMDPad,CuDef*%
%ADD20RoundRect,0.135000X0.185000X-0.135000X0.185000X0.135000X-0.185000X0.135000X-0.185000X-0.135000X0*%
%TD*%
%TA.AperFunction,SMDPad,CuDef*%
%ADD21RoundRect,0.135000X-0.185000X0.135000X-0.185000X-0.135000X0.185000X-0.135000X0.185000X0.135000X0*%
%TD*%
%TA.AperFunction,SMDPad,CuDef*%
%ADD22R,1.500000X0.450000*%
%TD*%
%TA.AperFunction,HeatsinkPad*%
%ADD23O,1.100000X1.800000*%
%TD*%
%TA.AperFunction,HeatsinkPad*%
%ADD24O,1.100000X2.200000*%
%TD*%
%TA.AperFunction,SMDPad,CuDef*%
%ADD25RoundRect,0.218750X-0.256250X0.218750X-0.256250X-0.218750X0.256250X-0.218750X0.256250X0.218750X0*%
%TD*%
%TA.AperFunction,SMDPad,CuDef*%
%ADD26RoundRect,0.225000X0.250000X-0.225000X0.250000X0.225000X-0.250000X0.225000X-0.250000X-0.225000X0*%
%TD*%
%TA.AperFunction,SMDPad,CuDef*%
%ADD27RoundRect,0.140000X0.170000X-0.140000X0.170000X0.140000X-0.170000X0.140000X-0.170000X-0.140000X0*%
%TD*%
%TA.AperFunction,SMDPad,CuDef*%
%ADD28RoundRect,0.140000X-0.170000X0.140000X-0.170000X-0.140000X0.170000X-0.140000X0.170000X0.140000X0*%
%TD*%
%TA.AperFunction,SMDPad,CuDef*%
%ADD29RoundRect,0.225000X-0.250000X0.225000X-0.250000X-0.225000X0.250000X-0.225000X0.250000X0.225000X0*%
%TD*%
%TA.AperFunction,SMDPad,CuDef*%
%ADD30RoundRect,0.225000X-0.225000X-0.250000X0.225000X-0.250000X0.225000X0.250000X-0.225000X0.250000X0*%
%TD*%
%TA.AperFunction,SMDPad,CuDef*%
%ADD31RoundRect,0.140000X-0.140000X-0.170000X0.140000X-0.170000X0.140000X0.170000X-0.140000X0.170000X0*%
%TD*%
%TA.AperFunction,ViaPad*%
%ADD32C,0.600000*%
%TD*%
%TA.AperFunction,Conductor*%
%ADD33C,0.200000*%
%TD*%
G04 APERTURE END LIST*
D10*
%TO.P,U1,48,VDD*%
%TO.N,+3.3V*%
X126183500Y-45855500D03*
%TO.P,U1,47,VSS*%
%TO.N,GND*%
X126683500Y-45855500D03*
%TO.P,U1,46,PB9*%
%TO.N,unconnected-(U1-PB9-Pad46)*%
X127183500Y-45855500D03*
%TO.P,U1,45,PB8*%
%TO.N,unconnected-(U1-PB8-Pad45)*%
X127683500Y-45855500D03*
%TO.P,U1,44,BOOT0*%
%TO.N,/BOOT0*%
X128183500Y-45855500D03*
%TO.P,U1,43,PB7*%
%TO.N,/USART1_RX*%
X128683500Y-45855500D03*
%TO.P,U1,42,PB6*%
%TO.N,/USART1_TX*%
X129183500Y-45855500D03*
%TO.P,U1,41,PB5*%
%TO.N,unconnected-(U1-PB5-Pad41)*%
X129683500Y-45855500D03*
%TO.P,U1,40,PB4*%
%TO.N,unconnected-(U1-PB4-Pad40)*%
X130183500Y-45855500D03*
%TO.P,U1,39,PB3*%
%TO.N,unconnected-(U1-PB3-Pad39)*%
X130683500Y-45855500D03*
%TO.P,U1,38,PA15*%
%TO.N,unconnected-(U1-PA15-Pad38)*%
X131183500Y-45855500D03*
%TO.P,U1,37,PA14*%
%TO.N,/SW_CLK*%
X131683500Y-45855500D03*
D11*
%TO.P,U1,36,VDD*%
%TO.N,+3.3V*%
X133096000Y-47268000D03*
%TO.P,U1,35,VSS*%
%TO.N,GND*%
X133096000Y-47768000D03*
%TO.P,U1,34,PA13*%
%TO.N,/SWDIO*%
X133096000Y-48268000D03*
%TO.P,U1,33,PA12*%
%TO.N,/USB_D+*%
X133096000Y-48768000D03*
%TO.P,U1,32,PA11*%
%TO.N,/USB_D-*%
X133096000Y-49268000D03*
%TO.P,U1,31,PA10*%
%TO.N,unconnected-(U1-PA10-Pad31)*%
X133096000Y-49768000D03*
%TO.P,U1,30,PA9*%
%TO.N,unconnected-(U1-PA9-Pad30)*%
X133096000Y-50268000D03*
%TO.P,U1,29,PA8*%
%TO.N,unconnected-(U1-PA8-Pad29)*%
X133096000Y-50768000D03*
%TO.P,U1,28,PB15*%
%TO.N,unconnected-(U1-PB15-Pad28)*%
X133096000Y-51268000D03*
%TO.P,U1,27,PB14*%
%TO.N,unconnected-(U1-PB14-Pad27)*%
X133096000Y-51768000D03*
%TO.P,U1,26,PB13*%
%TO.N,unconnected-(U1-PB13-Pad26)*%
X133096000Y-52268000D03*
%TO.P,U1,25,PB12*%
%TO.N,unconnected-(U1-PB12-Pad25)*%
X133096000Y-52768000D03*
D10*
%TO.P,U1,24,VDD*%
%TO.N,+3.3V*%
X131683500Y-54180500D03*
%TO.P,U1,23,VSS*%
%TO.N,GND*%
X131183500Y-54180500D03*
%TO.P,U1,22,PB11*%
%TO.N,/I2C2_SDA*%
X130683500Y-54180500D03*
%TO.P,U1,21,PB10*%
%TO.N,/I2C2_SCL*%
X130183500Y-54180500D03*
%TO.P,U1,20,PB2*%
%TO.N,unconnected-(U1-PB2-Pad20)*%
X129683500Y-54180500D03*
%TO.P,U1,19,PB1*%
%TO.N,unconnected-(U1-PB1-Pad19)*%
X129183500Y-54180500D03*
%TO.P,U1,18,PB0*%
%TO.N,unconnected-(U1-PB0-Pad18)*%
X128683500Y-54180500D03*
%TO.P,U1,17,PA7*%
%TO.N,unconnected-(U1-PA7-Pad17)*%
X128183500Y-54180500D03*
%TO.P,U1,16,PA6*%
%TO.N,unconnected-(U1-PA6-Pad16)*%
X127683500Y-54180500D03*
%TO.P,U1,15,PA5*%
%TO.N,unconnected-(U1-PA5-Pad15)*%
X127183500Y-54180500D03*
%TO.P,U1,14,PA4*%
%TO.N,unconnected-(U1-PA4-Pad14)*%
X126683500Y-54180500D03*
%TO.P,U1,13,PA3*%
%TO.N,unconnected-(U1-PA3-Pad13)*%
X126183500Y-54180500D03*
D11*
%TO.P,U1,12,PA2*%
%TO.N,unconnected-(U1-PA2-Pad12)*%
X124771000Y-52768000D03*
%TO.P,U1,11,PA1*%
%TO.N,unconnected-(U1-PA1-Pad11)*%
X124771000Y-52268000D03*
%TO.P,U1,10,PA0*%
%TO.N,unconnected-(U1-PA0-Pad10)*%
X124771000Y-51768000D03*
%TO.P,U1,9,VDDA*%
%TO.N,+3.3V*%
X124771000Y-51268000D03*
%TO.P,U1,8,VSSA*%
%TO.N,GND*%
X124771000Y-50768000D03*
%TO.P,U1,7,NRST*%
%TO.N,/NRST*%
X124771000Y-50268000D03*
%TO.P,U1,6,PD1*%
%TO.N,/HSE_out*%
X124771000Y-49768000D03*
%TO.P,U1,5,PD0*%
%TO.N,/HSE_in*%
X124771000Y-49268000D03*
%TO.P,U1,4,PC15*%
%TO.N,unconnected-(U1-PC15-Pad4)*%
X124771000Y-48768000D03*
%TO.P,U1,3,PC14*%
%TO.N,unconnected-(U1-PC14-Pad3)*%
X124771000Y-48268000D03*
%TO.P,U1,2,PC13*%
%TO.N,unconnected-(U1-PC13-Pad2)*%
X124771000Y-47768000D03*
%TO.P,U1,1,VBAT*%
%TO.N,+3.3V*%
X124771000Y-47268000D03*
%TD*%
D12*
%TO.P,J4,4,Pin_4*%
%TO.N,GND*%
X140700000Y-49502000D03*
%TO.P,J4,3,Pin_3*%
%TO.N,/I2C2_SDA*%
X139700000Y-47752000D03*
%TO.P,J4,2,Pin_2*%
%TO.N,/I2C2_SCL*%
X138700000Y-49502000D03*
%TO.P,J4,1,Pin_1*%
%TO.N,+3.3V*%
X137700000Y-47752000D03*
%TD*%
D13*
%TO.P,J2,4,Pin_4*%
%TO.N,GND*%
X129032000Y-38640000D03*
%TO.P,J2,3,Pin_3*%
%TO.N,/SW_CLK*%
X127282000Y-39640000D03*
%TO.P,J2,2,Pin_2*%
%TO.N,/SWDIO*%
X129032000Y-40640000D03*
%TO.P,J2,1,Pin_1*%
%TO.N,+3.3V*%
X127282000Y-41640000D03*
%TD*%
%TO.P,J3,4,Pin_4*%
%TO.N,GND*%
X135636000Y-39148000D03*
%TO.P,J3,3,Pin_3*%
%TO.N,/USART1_RX*%
X133886000Y-40148000D03*
%TO.P,J3,2,Pin_2*%
%TO.N,/USART1_TX*%
X135636000Y-41148000D03*
%TO.P,J3,1,Pin_1*%
%TO.N,+3.3V*%
X133886000Y-42148000D03*
%TD*%
D14*
%TO.P,SW1,3,C*%
%TO.N,+3.3V*%
X117680000Y-45836000D03*
D15*
%TO.P,SW1,2,B*%
%TO.N,Net-(SW1-B)*%
X119380000Y-44196000D03*
%TO.P,SW1,1,A*%
%TO.N,GND*%
X115980000Y-44196000D03*
%TD*%
D16*
%TO.P,R1,2*%
%TO.N,/BOOT0*%
X123444000Y-44196000D03*
%TO.P,R1,1*%
%TO.N,Net-(SW1-B)*%
X122424000Y-44196000D03*
%TD*%
D17*
%TO.P,Y1,1,1*%
%TO.N,/HSE_in*%
X118364000Y-49100000D03*
%TO.P,Y1,2,G*%
%TO.N,GND*%
X116164000Y-49100000D03*
%TO.P,Y1,3,3*%
%TO.N,/HSE_out*%
X116164000Y-50800000D03*
%TO.P,Y1,4,G*%
%TO.N,GND*%
X118364000Y-50800000D03*
%TD*%
D18*
%TO.P,U2,1,GND*%
%TO.N,GND*%
X135534000Y-63980000D03*
%TO.P,U2,2,VO*%
%TO.N,+3.3V*%
X135534000Y-66280000D03*
D19*
X141834000Y-66280000D03*
D18*
%TO.P,U2,3,VI*%
%TO.N,VBUS*%
X135534000Y-68580000D03*
%TD*%
D16*
%TO.P,R5,1*%
%TO.N,+3.3V*%
X138174000Y-45720000D03*
%TO.P,R5,2*%
%TO.N,/I2C2_SDA*%
X139194000Y-45720000D03*
%TD*%
%TO.P,R4,1*%
%TO.N,+3.3V*%
X137664000Y-51816000D03*
%TO.P,R4,2*%
%TO.N,/I2C2_SCL*%
X138684000Y-51816000D03*
%TD*%
D20*
%TO.P,R3,1*%
%TO.N,/Power_LED_Path*%
X132994000Y-65532000D03*
%TO.P,R3,2*%
%TO.N,GND*%
X132994000Y-64512000D03*
%TD*%
D21*
%TO.P,R2,1*%
%TO.N,+3.3V*%
X137158000Y-56386000D03*
%TO.P,R2,2*%
%TO.N,/USB_D+*%
X137158000Y-57406000D03*
%TD*%
D22*
%TO.P,J1,1,VBUS*%
%TO.N,VBUS*%
X140966000Y-58704000D03*
%TO.P,J1,2,D-*%
%TO.N,/USB_D-*%
X140966000Y-58054000D03*
%TO.P,J1,3,D+*%
%TO.N,/USB_D+*%
X140966000Y-57404000D03*
%TO.P,J1,4,ID*%
%TO.N,unconnected-(J1-ID-Pad4)*%
X140966000Y-56754000D03*
%TO.P,J1,5,GND*%
%TO.N,GND*%
X140966000Y-56104000D03*
D23*
%TO.P,J1,6,Shield*%
%TO.N,unconnected-(J1-Shield-Pad6)_1*%
X140716000Y-60204000D03*
D24*
%TO.N,unconnected-(J1-Shield-Pad6)_2*%
X142866000Y-57404000D03*
D23*
%TO.N,unconnected-(J1-Shield-Pad6)*%
X140716000Y-54604000D03*
%TD*%
D25*
%TO.P,FB1,1*%
%TO.N,+3.3V*%
X132588000Y-56845000D03*
%TO.P,FB1,2*%
X132588000Y-58420000D03*
%TD*%
%TO.P,D1,1,K*%
%TO.N,/Power_LED_Path*%
X130962000Y-64465000D03*
%TO.P,D1,2,A*%
%TO.N,+3.3V*%
X130962000Y-66040000D03*
%TD*%
D26*
%TO.P,C13,1*%
%TO.N,+3.3V*%
X128422000Y-66040000D03*
%TO.P,C13,2*%
%TO.N,GND*%
X128422000Y-64490000D03*
%TD*%
%TO.P,C12,1*%
%TO.N,VBUS*%
X125882000Y-66066000D03*
%TO.P,C12,2*%
%TO.N,GND*%
X125882000Y-64516000D03*
%TD*%
D27*
%TO.P,C11,1*%
%TO.N,/HSE_out*%
X120396000Y-51788000D03*
%TO.P,C11,2*%
%TO.N,GND*%
X120396000Y-50828000D03*
%TD*%
D28*
%TO.P,C10,1*%
%TO.N,/HSE_in*%
X120396000Y-48796000D03*
%TO.P,C10,2*%
%TO.N,GND*%
X120396000Y-49756000D03*
%TD*%
%TO.P,C9,1*%
%TO.N,/NRST*%
X124460000Y-55936000D03*
%TO.P,C9,2*%
%TO.N,GND*%
X124460000Y-56896000D03*
%TD*%
%TO.P,C8,1*%
%TO.N,+3.3V*%
X134620000Y-56924000D03*
%TO.P,C8,2*%
%TO.N,GND*%
X134620000Y-57884000D03*
%TD*%
%TO.P,C7,1*%
%TO.N,+3.3V*%
X130048000Y-57460000D03*
%TO.P,C7,2*%
%TO.N,GND*%
X130048000Y-58420000D03*
%TD*%
D29*
%TO.P,C6,1*%
%TO.N,+3.3V*%
X127508000Y-57137000D03*
%TO.P,C6,2*%
%TO.N,GND*%
X127508000Y-58687000D03*
%TD*%
D30*
%TO.P,C5,1*%
%TO.N,+3.3V*%
X121414000Y-62992000D03*
%TO.P,C5,2*%
%TO.N,GND*%
X122964000Y-62992000D03*
%TD*%
D31*
%TO.P,C4,1*%
%TO.N,+3.3V*%
X121440000Y-60960000D03*
%TO.P,C4,2*%
%TO.N,GND*%
X122400000Y-60960000D03*
%TD*%
%TO.P,C3,1*%
%TO.N,+3.3V*%
X121496000Y-58928000D03*
%TO.P,C3,2*%
%TO.N,GND*%
X122456000Y-58928000D03*
%TD*%
%TO.P,C2,1*%
%TO.N,+3.3V*%
X121468000Y-56896000D03*
%TO.P,C2,2*%
%TO.N,GND*%
X122428000Y-56896000D03*
%TD*%
%TO.P,C1,1*%
%TO.N,+3.3V*%
X121468000Y-54864000D03*
%TO.P,C1,2*%
%TO.N,GND*%
X122428000Y-54864000D03*
%TD*%
D32*
%TO.N,GND*%
X130048000Y-51308000D03*
X131860840Y-51898700D03*
%TO.N,/I2C2_SDA*%
X135636000Y-46228000D03*
X131064000Y-47752000D03*
%TO.N,/USB_D+*%
X138776000Y-55372000D03*
X136236000Y-51816000D03*
%TO.N,/I2C2_SCL*%
X136652000Y-54356000D03*
X133521485Y-54946515D03*
%TO.N,/USART1_RX*%
X129482313Y-43630313D03*
X131977444Y-42663062D03*
%TO.N,/USART1_TX*%
X130048000Y-44196000D03*
X132588000Y-43180000D03*
%TO.N,+3.3V*%
X124968000Y-45212000D03*
X127065265Y-40705265D03*
%TO.N,/USB_D-*%
X135128000Y-49784000D03*
X139700000Y-58004000D03*
%TO.N,VBUS*%
X138684000Y-65024000D03*
X138684000Y-67564000D03*
%TD*%
D33*
%TO.N,GND*%
X131183500Y-52576040D02*
X131183500Y-54180500D01*
X131860840Y-51898700D02*
X131183500Y-52576040D01*
X129540000Y-51308000D02*
X130048000Y-51308000D01*
X126683500Y-50991500D02*
X127000000Y-51308000D01*
X127000000Y-51308000D02*
X129540000Y-51308000D01*
X126683500Y-48909176D02*
X126683500Y-50991500D01*
%TO.N,/I2C2_SDA*%
X139700000Y-45720000D02*
X139194000Y-45720000D01*
X137668000Y-43688000D02*
X139700000Y-43688000D01*
X137160000Y-44196000D02*
X137668000Y-43688000D01*
X137160000Y-44704000D02*
X137160000Y-44196000D01*
X135636000Y-46228000D02*
X137160000Y-44704000D01*
X140208000Y-44196000D02*
X140208000Y-45212000D01*
X140208000Y-45212000D02*
X139700000Y-45720000D01*
X130683500Y-48132500D02*
X131064000Y-47752000D01*
X130683500Y-54180500D02*
X130683500Y-48132500D01*
X139700000Y-43688000D02*
X140208000Y-44196000D01*
%TO.N,+3.3V*%
X125476000Y-58420000D02*
X125476000Y-62992000D01*
X126759000Y-57137000D02*
X125476000Y-58420000D01*
X127508000Y-57137000D02*
X126759000Y-57137000D01*
X125476000Y-62992000D02*
X124968000Y-62992000D01*
%TO.N,/USB_D+*%
X138776000Y-55788000D02*
X137158000Y-57406000D01*
X138776000Y-55372000D02*
X138776000Y-55788000D01*
X136144000Y-51816000D02*
X136236000Y-51816000D01*
X136144000Y-49950057D02*
X136144000Y-51816000D01*
X134961943Y-48768000D02*
X136144000Y-49950057D01*
X133096000Y-48768000D02*
X134961943Y-48768000D01*
%TO.N,/I2C2_SCL*%
X137160000Y-54356000D02*
X138684000Y-52832000D01*
X136652000Y-54356000D02*
X137160000Y-54356000D01*
X138684000Y-52832000D02*
X138684000Y-51816000D01*
X132588000Y-55880000D02*
X133521485Y-54946515D01*
X130556000Y-55880000D02*
X132588000Y-55880000D01*
X130183500Y-55507500D02*
X130556000Y-55880000D01*
X130183500Y-54180500D02*
X130183500Y-55507500D01*
%TO.N,GND*%
X126683500Y-48909176D02*
X126683500Y-45855500D01*
X131183500Y-55252500D02*
X131064000Y-55372000D01*
X131183500Y-54180500D02*
X131183500Y-55252500D01*
%TO.N,/USART1_RX*%
X128683500Y-44429126D02*
X128683500Y-45855500D01*
X129482313Y-43630313D02*
X128683500Y-44429126D01*
X133311000Y-40148000D02*
X131977444Y-41481556D01*
X131977444Y-41481556D02*
X131977444Y-42663062D01*
X133886000Y-40148000D02*
X133311000Y-40148000D01*
%TO.N,/USART1_TX*%
X130048000Y-44196000D02*
X129183500Y-45060500D01*
X129183500Y-45060500D02*
X129183500Y-45855500D01*
X132588000Y-41669000D02*
X132588000Y-43180000D01*
X133109000Y-41148000D02*
X132588000Y-41669000D01*
X135636000Y-41148000D02*
X133109000Y-41148000D01*
%TO.N,+3.3V*%
X121920000Y-53848000D02*
X115316000Y-53848000D01*
X121920000Y-53848000D02*
X122936000Y-52832000D01*
X117232000Y-45836000D02*
X117680000Y-45836000D01*
X115316000Y-53848000D02*
X114808000Y-53340000D01*
X114808000Y-53340000D02*
X114808000Y-48260000D01*
X114808000Y-48260000D02*
X117232000Y-45836000D01*
X125540000Y-45212000D02*
X126183500Y-45855500D01*
X124968000Y-45212000D02*
X125540000Y-45212000D01*
X127282000Y-40922000D02*
X127065265Y-40705265D01*
X127282000Y-41640000D02*
X127282000Y-40922000D01*
%TO.N,GND*%
X123476000Y-50768000D02*
X124771000Y-50768000D01*
X123476000Y-50768000D02*
X123444000Y-50800000D01*
%TO.N,/NRST*%
X125984000Y-50642576D02*
X125609424Y-50268000D01*
X125609424Y-50268000D02*
X124771000Y-50268000D01*
X125984000Y-52832000D02*
X125984000Y-50642576D01*
X124460000Y-54356000D02*
X125984000Y-52832000D01*
X124460000Y-55936000D02*
X124460000Y-54356000D01*
%TO.N,+3.3V*%
X123484000Y-51268000D02*
X124771000Y-51268000D01*
X122936000Y-51816000D02*
X123484000Y-51268000D01*
X122936000Y-52832000D02*
X122936000Y-51816000D01*
X121468000Y-54300000D02*
X121920000Y-53848000D01*
X121468000Y-54864000D02*
X121468000Y-54300000D01*
%TO.N,GND*%
X134604000Y-47768000D02*
X134620000Y-47752000D01*
X133096000Y-47768000D02*
X134604000Y-47768000D01*
%TO.N,/SWDIO*%
X132324676Y-48268000D02*
X133096000Y-48268000D01*
X132057500Y-47035176D02*
X132057500Y-48000824D01*
X132057500Y-48000824D02*
X132324676Y-48268000D01*
X132275676Y-46817000D02*
X132057500Y-47035176D01*
X132275676Y-44899676D02*
X132275676Y-46817000D01*
%TO.N,+3.3V*%
X133886000Y-46478000D02*
X133886000Y-42148000D01*
X133096000Y-47268000D02*
X133886000Y-46478000D01*
X137700000Y-47752000D02*
X137700000Y-51780000D01*
X137700000Y-51780000D02*
X137664000Y-51816000D01*
X137216000Y-47268000D02*
X137700000Y-47752000D01*
X133096000Y-47268000D02*
X137216000Y-47268000D01*
%TO.N,/I2C2_SDA*%
X139194000Y-47246000D02*
X139700000Y-47752000D01*
X139194000Y-45720000D02*
X139194000Y-47246000D01*
%TO.N,+3.3V*%
X137700000Y-47752000D02*
X137700000Y-46194000D01*
X137700000Y-46194000D02*
X138174000Y-45720000D01*
%TO.N,/I2C2_SCL*%
X138700000Y-51800000D02*
X138684000Y-51816000D01*
X138700000Y-49502000D02*
X138700000Y-51800000D01*
%TO.N,/USB_D-*%
X134612000Y-49268000D02*
X133096000Y-49268000D01*
X135128000Y-49784000D02*
X134612000Y-49268000D01*
X139700000Y-57912000D02*
X139700000Y-58004000D01*
X139842000Y-58054000D02*
X139700000Y-57912000D01*
X140966000Y-58054000D02*
X139842000Y-58054000D01*
%TO.N,/USB_D+*%
X137160000Y-57404000D02*
X137158000Y-57406000D01*
X140966000Y-57404000D02*
X137160000Y-57404000D01*
%TO.N,VBUS*%
X138908000Y-58704000D02*
X140966000Y-58704000D01*
X137160000Y-60452000D02*
X138908000Y-58704000D01*
X137160000Y-62484000D02*
X137160000Y-60452000D01*
X138684000Y-64008000D02*
X137160000Y-62484000D01*
X137160000Y-60452000D02*
X137160000Y-60960000D01*
X138684000Y-65024000D02*
X138684000Y-64008000D01*
X137668000Y-68580000D02*
X138684000Y-67564000D01*
X135534000Y-68580000D02*
X137668000Y-68580000D01*
%TO.N,+3.3V*%
X121414000Y-64010000D02*
X121414000Y-62992000D01*
X121920000Y-64516000D02*
X121414000Y-64010000D01*
X123444000Y-64516000D02*
X121920000Y-64516000D01*
X127000000Y-63500000D02*
X126492000Y-62992000D01*
X127000000Y-65532000D02*
X127000000Y-63500000D01*
X127508000Y-66040000D02*
X127000000Y-65532000D01*
X126492000Y-62992000D02*
X125476000Y-62992000D01*
X128422000Y-66040000D02*
X127508000Y-66040000D01*
X124968000Y-62992000D02*
X123444000Y-64516000D01*
X124771000Y-47268000D02*
X126183500Y-45855500D01*
%TO.N,/SW_CLK*%
X131683500Y-44874600D02*
X131683500Y-45855500D01*
X129540000Y-42731100D02*
X131683500Y-44874600D01*
X126537000Y-42672000D02*
X129540000Y-42672000D01*
X129540000Y-42672000D02*
X129540000Y-42731100D01*
X126106000Y-42241000D02*
X126537000Y-42672000D01*
X126106000Y-40816000D02*
X126106000Y-42241000D01*
X127282000Y-39640000D02*
X126106000Y-40816000D01*
%TO.N,/SWDIO*%
X131064000Y-43688000D02*
X132275676Y-44899676D01*
X131064000Y-41148000D02*
X131064000Y-43688000D01*
X130556000Y-40640000D02*
X131064000Y-41148000D01*
X129032000Y-40640000D02*
X130556000Y-40640000D01*
%TO.N,/BOOT0*%
X127295324Y-44196000D02*
X128183500Y-45084176D01*
X123444000Y-44196000D02*
X127295324Y-44196000D01*
X128183500Y-45084176D02*
X128183500Y-45855500D01*
%TO.N,GND*%
X122428000Y-57912000D02*
X122428000Y-58900000D01*
%TO.N,+3.3V*%
X136144000Y-54864000D02*
X134287500Y-54864000D01*
X137158000Y-55878000D02*
X136144000Y-54864000D01*
X134287500Y-54864000D02*
X133604000Y-54180500D01*
X135299500Y-54180500D02*
X133604000Y-54180500D01*
X137158000Y-56386000D02*
X137158000Y-55878000D01*
X129725000Y-57137000D02*
X130048000Y-57460000D01*
X127508000Y-57137000D02*
X129725000Y-57137000D01*
X130663000Y-56845000D02*
X130048000Y-57460000D01*
X132588000Y-56845000D02*
X130663000Y-56845000D01*
X132588000Y-58420000D02*
X132588000Y-56845000D01*
X132667000Y-56924000D02*
X132588000Y-56845000D01*
X134620000Y-56924000D02*
X132667000Y-56924000D01*
X136116000Y-56924000D02*
X134620000Y-56924000D01*
X136654000Y-56386000D02*
X136116000Y-56924000D01*
X137158000Y-56386000D02*
X136654000Y-56386000D01*
X133604000Y-54180500D02*
X131683500Y-54180500D01*
X137664000Y-51816000D02*
X135299500Y-54180500D01*
X141834000Y-66280000D02*
X135534000Y-66280000D01*
X135534000Y-66280000D02*
X131202000Y-66280000D01*
X131202000Y-66280000D02*
X130962000Y-66040000D01*
%TO.N,/Power_LED_Path*%
X131927000Y-64465000D02*
X132994000Y-65532000D01*
X130962000Y-64465000D02*
X131927000Y-64465000D01*
%TO.N,+3.3V*%
X128422000Y-66040000D02*
X130962000Y-66040000D01*
%TO.N,VBUS*%
X133438000Y-68580000D02*
X135534000Y-68580000D01*
X133198000Y-68820000D02*
X133438000Y-68580000D01*
X125882000Y-67600000D02*
X127102000Y-68820000D01*
X127102000Y-68820000D02*
X133198000Y-68820000D01*
X125882000Y-66066000D02*
X125882000Y-67600000D01*
%TO.N,GND*%
X128396000Y-64516000D02*
X128422000Y-64490000D01*
X127749000Y-58687000D02*
X128016000Y-58420000D01*
X127508000Y-58687000D02*
X127749000Y-58687000D01*
X122964000Y-62992000D02*
X122964000Y-63462000D01*
X122964000Y-62446000D02*
X122964000Y-62992000D01*
%TO.N,+3.3V*%
X121440000Y-61406000D02*
X121414000Y-61432000D01*
X121440000Y-60960000D02*
X121440000Y-61406000D01*
X121414000Y-61432000D02*
X121414000Y-62992000D01*
X121496000Y-60904000D02*
X121440000Y-60960000D01*
X121496000Y-58928000D02*
X121496000Y-60904000D01*
X121496000Y-57422000D02*
X121496000Y-58928000D01*
X121468000Y-57394000D02*
X121496000Y-57422000D01*
X121468000Y-56896000D02*
X121468000Y-57394000D01*
X121468000Y-54864000D02*
X121468000Y-56896000D01*
%TO.N,GND*%
X122428000Y-54864000D02*
X122428000Y-56896000D01*
X122428000Y-58900000D02*
X122456000Y-58928000D01*
X122428000Y-56896000D02*
X122428000Y-57912000D01*
X122456000Y-60904000D02*
X122400000Y-60960000D01*
X122456000Y-58928000D02*
X122456000Y-60904000D01*
%TO.N,/HSE_out*%
X123460000Y-49768000D02*
X124771000Y-49768000D01*
X120396000Y-51788000D02*
X121440000Y-51788000D01*
X121440000Y-51788000D02*
X123460000Y-49768000D01*
X117152000Y-51788000D02*
X120396000Y-51788000D01*
X116164000Y-50800000D02*
X117152000Y-51788000D01*
%TO.N,GND*%
X120396000Y-49756000D02*
X120396000Y-50828000D01*
X118872000Y-50800000D02*
X118900000Y-50828000D01*
X118364000Y-50800000D02*
X118872000Y-50800000D01*
X118900000Y-50828000D02*
X120396000Y-50828000D01*
%TO.N,/HSE_in*%
X121920000Y-49276000D02*
X121928000Y-49268000D01*
X121928000Y-49268000D02*
X124771000Y-49268000D01*
X121440000Y-48796000D02*
X121920000Y-49276000D01*
X120396000Y-48796000D02*
X121440000Y-48796000D01*
X120092000Y-49100000D02*
X120396000Y-48796000D01*
X118364000Y-49100000D02*
X120092000Y-49100000D01*
%TO.N,GND*%
X116664000Y-49100000D02*
X118364000Y-50800000D01*
X116164000Y-49100000D02*
X116664000Y-49100000D01*
X115980000Y-44196000D02*
X115824000Y-44196000D01*
%TO.N,Net-(SW1-B)*%
X122424000Y-44196000D02*
X119380000Y-44196000D01*
%TO.N,+3.3V*%
X118872000Y-46736000D02*
X122428000Y-46736000D01*
X117972000Y-45836000D02*
X118872000Y-46736000D01*
X117680000Y-45836000D02*
X117972000Y-45836000D01*
X122960000Y-47268000D02*
X122428000Y-46736000D01*
X124771000Y-47268000D02*
X122960000Y-47268000D01*
%TD*%
%TA.AperFunction,Conductor*%
%TO.N,GND*%
G36*
X131686142Y-57455248D02*
G01*
X131719578Y-57464924D01*
X131719828Y-57465139D01*
X131719984Y-57465185D01*
X131720537Y-57465749D01*
X131746341Y-57487933D01*
X131753094Y-57495665D01*
X131763719Y-57512891D01*
X131798610Y-57547782D01*
X131801362Y-57550933D01*
X131814316Y-57579008D01*
X131829132Y-57606142D01*
X131828823Y-57610451D01*
X131830634Y-57614375D01*
X131826353Y-57644991D01*
X131824148Y-57675834D01*
X131821558Y-57679293D01*
X131820960Y-57683572D01*
X131795647Y-57720181D01*
X131763719Y-57752108D01*
X131763716Y-57752112D01*
X131675455Y-57895204D01*
X131675451Y-57895213D01*
X131622564Y-58054815D01*
X131622564Y-58054816D01*
X131622563Y-58054816D01*
X131612500Y-58153318D01*
X131612500Y-58686681D01*
X131622563Y-58785183D01*
X131675450Y-58944784D01*
X131675455Y-58944795D01*
X131763716Y-59087887D01*
X131763719Y-59087891D01*
X131882608Y-59206780D01*
X131882612Y-59206783D01*
X132025704Y-59295044D01*
X132025707Y-59295045D01*
X132025713Y-59295049D01*
X132185315Y-59347936D01*
X132283826Y-59358000D01*
X132283831Y-59358000D01*
X132892169Y-59358000D01*
X132892174Y-59358000D01*
X132990685Y-59347936D01*
X133150287Y-59295049D01*
X133293391Y-59206781D01*
X133412281Y-59087891D01*
X133500549Y-58944787D01*
X133553436Y-58785185D01*
X133563500Y-58686674D01*
X133563500Y-58153326D01*
X133561526Y-58134000D01*
X133815496Y-58134000D01*
X133857968Y-58280195D01*
X133940278Y-58419374D01*
X133940285Y-58419383D01*
X134054616Y-58533714D01*
X134054625Y-58533721D01*
X134193804Y-58616031D01*
X134349089Y-58661145D01*
X134370000Y-58662789D01*
X134870000Y-58662789D01*
X134890910Y-58661145D01*
X135046195Y-58616031D01*
X135185374Y-58533721D01*
X135185383Y-58533714D01*
X135299714Y-58419383D01*
X135299721Y-58419374D01*
X135382031Y-58280195D01*
X135424504Y-58134000D01*
X134870000Y-58134000D01*
X134870000Y-58662789D01*
X134370000Y-58662789D01*
X134370000Y-58134000D01*
X133815496Y-58134000D01*
X133561526Y-58134000D01*
X133553436Y-58054815D01*
X133500549Y-57895213D01*
X133500545Y-57895207D01*
X133500544Y-57895204D01*
X133412283Y-57752112D01*
X133412280Y-57752108D01*
X133396353Y-57736181D01*
X133385740Y-57716744D01*
X133371240Y-57700011D01*
X133369323Y-57686679D01*
X133362868Y-57674858D01*
X133364447Y-57652771D01*
X133361296Y-57630853D01*
X133366891Y-57618601D01*
X133367852Y-57605166D01*
X133381122Y-57587439D01*
X133390321Y-57567297D01*
X133401652Y-57560014D01*
X133409724Y-57549233D01*
X133430469Y-57541495D01*
X133449099Y-57529523D01*
X133471017Y-57526371D01*
X133475188Y-57524816D01*
X133484034Y-57524500D01*
X133682156Y-57524500D01*
X133749195Y-57544185D01*
X133794950Y-57596989D01*
X133796665Y-57608921D01*
X133815495Y-57634000D01*
X134121648Y-57634000D01*
X134184766Y-57651267D01*
X134193605Y-57656494D01*
X134193608Y-57656494D01*
X134193610Y-57656496D01*
X134349002Y-57701642D01*
X134349005Y-57701642D01*
X134349007Y-57701643D01*
X134385310Y-57704500D01*
X134385318Y-57704500D01*
X134854682Y-57704500D01*
X134854690Y-57704500D01*
X134890993Y-57701643D01*
X134890995Y-57701642D01*
X134890997Y-57701642D01*
X135046389Y-57656496D01*
X135046389Y-57656495D01*
X135046395Y-57656494D01*
X135055233Y-57651267D01*
X135118352Y-57634000D01*
X135424505Y-57634000D01*
X135438962Y-57614744D01*
X135438967Y-57613226D01*
X135476909Y-57554556D01*
X135540547Y-57525712D01*
X135557844Y-57524500D01*
X136036939Y-57524500D01*
X136036943Y-57524501D01*
X136195057Y-57524501D01*
X136201035Y-57522898D01*
X136215237Y-57522767D01*
X136241878Y-57530321D01*
X136269234Y-57534586D01*
X136275017Y-57539718D01*
X136282456Y-57541828D01*
X136300778Y-57562580D01*
X136321492Y-57580963D01*
X136324170Y-57589074D01*
X136328700Y-57594205D01*
X136331156Y-57610230D01*
X136340007Y-57637034D01*
X136340335Y-57641205D01*
X136385129Y-57795388D01*
X136385131Y-57795393D01*
X136466863Y-57933595D01*
X136466869Y-57933603D01*
X136580396Y-58047130D01*
X136580400Y-58047133D01*
X136580402Y-58047135D01*
X136718607Y-58128869D01*
X136736268Y-58134000D01*
X136872791Y-58173664D01*
X136872794Y-58173664D01*
X136872796Y-58173665D01*
X136908819Y-58176500D01*
X137407180Y-58176499D01*
X137443204Y-58173665D01*
X137597393Y-58128869D01*
X137735598Y-58047135D01*
X137735603Y-58047130D01*
X137741915Y-58040819D01*
X137803238Y-58007334D01*
X137829596Y-58004500D01*
X138459372Y-58004500D01*
X138526411Y-58024185D01*
X138572166Y-58076989D01*
X138582110Y-58146147D01*
X138553085Y-58209703D01*
X138544804Y-58217506D01*
X138545031Y-58217733D01*
X136679481Y-60083282D01*
X136679479Y-60083285D01*
X136641252Y-60149498D01*
X136641251Y-60149500D01*
X136600423Y-60220214D01*
X136600423Y-60220215D01*
X136559499Y-60372943D01*
X136559499Y-60372945D01*
X136559499Y-60541046D01*
X136559500Y-60541059D01*
X136559500Y-62397330D01*
X136559499Y-62397348D01*
X136559499Y-62563056D01*
X136573920Y-62616877D01*
X136572257Y-62686727D01*
X136533094Y-62744589D01*
X136468865Y-62772093D01*
X136424218Y-62769305D01*
X136277824Y-62732897D01*
X136235097Y-62730000D01*
X135784000Y-62730000D01*
X135784000Y-63730000D01*
X137034000Y-63730000D01*
X137034000Y-63528899D01*
X137033999Y-63528892D01*
X137032967Y-63513675D01*
X137048067Y-63445457D01*
X137097651Y-63396231D01*
X137165978Y-63381628D01*
X137231353Y-63406283D01*
X137244363Y-63417598D01*
X138047181Y-64220416D01*
X138061884Y-64247343D01*
X138078477Y-64273162D01*
X138079368Y-64279362D01*
X138080666Y-64281739D01*
X138083500Y-64308097D01*
X138083500Y-64444234D01*
X138063815Y-64511273D01*
X138062602Y-64513125D01*
X137974609Y-64644814D01*
X137974602Y-64644827D01*
X137914264Y-64790498D01*
X137914261Y-64790510D01*
X137883500Y-64945153D01*
X137883500Y-65102846D01*
X137914261Y-65257489D01*
X137914264Y-65257501D01*
X137974602Y-65403172D01*
X137974609Y-65403185D01*
X138030352Y-65486609D01*
X138051230Y-65553286D01*
X138032746Y-65620666D01*
X137980767Y-65667357D01*
X137927250Y-65679500D01*
X137100916Y-65679500D01*
X137033877Y-65659815D01*
X136988122Y-65607011D01*
X136986425Y-65602887D01*
X136901032Y-65430707D01*
X136901030Y-65430704D01*
X136781724Y-65282280D01*
X136781722Y-65282278D01*
X136712112Y-65226324D01*
X136672196Y-65168985D01*
X136669616Y-65099163D01*
X136705194Y-65039030D01*
X136712115Y-65033033D01*
X136781366Y-64977367D01*
X136781367Y-64977366D01*
X136900607Y-64829025D01*
X136900609Y-64829022D01*
X136985168Y-64658523D01*
X137031102Y-64473824D01*
X137034000Y-64431096D01*
X137034000Y-64230000D01*
X134034897Y-64230000D01*
X134034000Y-64331658D01*
X134034000Y-64431096D01*
X134036897Y-64473824D01*
X134082831Y-64658523D01*
X134167390Y-64829022D01*
X134167392Y-64829025D01*
X134286630Y-64977364D01*
X134355884Y-65033031D01*
X134395803Y-65090375D01*
X134398383Y-65160197D01*
X134362805Y-65220329D01*
X134355885Y-65226326D01*
X134286276Y-65282280D01*
X134166969Y-65430704D01*
X134166967Y-65430707D01*
X134079372Y-65607329D01*
X134077464Y-65606382D01*
X134070115Y-65616298D01*
X134060797Y-65636703D01*
X134049713Y-65643825D01*
X134041869Y-65654410D01*
X134020890Y-65662349D01*
X134002019Y-65674477D01*
X133980770Y-65677532D01*
X133976522Y-65679140D01*
X133967084Y-65679500D01*
X133938500Y-65679500D01*
X133871461Y-65659815D01*
X133825706Y-65607011D01*
X133814500Y-65555501D01*
X133814499Y-65332830D01*
X133814498Y-65332808D01*
X133811665Y-65296799D01*
X133811665Y-65296796D01*
X133766869Y-65142607D01*
X133732581Y-65084629D01*
X133715398Y-65016905D01*
X133732582Y-64958386D01*
X133766404Y-64901196D01*
X133766405Y-64901194D01*
X133806844Y-64762000D01*
X133254409Y-64762000D01*
X133253933Y-64761999D01*
X133249295Y-64761981D01*
X133243181Y-64761500D01*
X133123882Y-64761500D01*
X133123621Y-64761499D01*
X133090352Y-64751591D01*
X133057058Y-64741815D01*
X133056784Y-64741594D01*
X133056658Y-64741557D01*
X133056477Y-64741347D01*
X133036416Y-64725181D01*
X133030319Y-64719084D01*
X133018108Y-64696722D01*
X133011106Y-64688578D01*
X133010226Y-64682286D01*
X132996834Y-64657761D01*
X132994000Y-64631403D01*
X132994000Y-64512000D01*
X132874597Y-64512000D01*
X132845156Y-64503355D01*
X132815170Y-64496832D01*
X132810154Y-64493077D01*
X132807558Y-64492315D01*
X132786916Y-64475681D01*
X132780319Y-64469084D01*
X132746834Y-64407761D01*
X132744000Y-64381403D01*
X132744000Y-64262000D01*
X133244000Y-64262000D01*
X133786606Y-64262000D01*
X133787202Y-64194391D01*
X133766405Y-64122806D01*
X133684738Y-63984714D01*
X133684731Y-63984705D01*
X133571294Y-63871268D01*
X133571285Y-63871261D01*
X133433191Y-63789593D01*
X133433188Y-63789592D01*
X133279130Y-63744834D01*
X133244000Y-63742068D01*
X133244000Y-64262000D01*
X132744000Y-64262000D01*
X132744000Y-63742068D01*
X132743999Y-63742068D01*
X132708869Y-63744834D01*
X132708868Y-63744834D01*
X132554811Y-63789592D01*
X132554808Y-63789593D01*
X132416714Y-63871261D01*
X132416704Y-63871269D01*
X132367925Y-63920048D01*
X132306602Y-63953532D01*
X132236910Y-63948547D01*
X132218244Y-63939752D01*
X132199524Y-63928944D01*
X132179153Y-63917183D01*
X132158785Y-63905423D01*
X132158784Y-63905422D01*
X132158783Y-63905422D01*
X132101648Y-63890113D01*
X132006057Y-63864499D01*
X131897054Y-63864499D01*
X131830015Y-63844814D01*
X131791515Y-63805595D01*
X131786281Y-63797109D01*
X131667391Y-63678219D01*
X131593010Y-63632340D01*
X131593009Y-63632339D01*
X131524295Y-63589955D01*
X131524289Y-63589952D01*
X131524287Y-63589951D01*
X131364685Y-63537064D01*
X131364683Y-63537063D01*
X131284809Y-63528903D01*
X134034000Y-63528903D01*
X134034000Y-63730000D01*
X135284000Y-63730000D01*
X135284000Y-62730000D01*
X134832903Y-62730000D01*
X134790175Y-62732897D01*
X134605476Y-62778831D01*
X134434977Y-62863390D01*
X134434974Y-62863392D01*
X134286633Y-62982632D01*
X134286632Y-62982633D01*
X134167392Y-63130974D01*
X134167390Y-63130977D01*
X134082831Y-63301476D01*
X134036897Y-63486175D01*
X134034000Y-63528903D01*
X131284809Y-63528903D01*
X131266181Y-63527000D01*
X131266174Y-63527000D01*
X130657826Y-63527000D01*
X130657818Y-63527000D01*
X130559316Y-63537063D01*
X130559315Y-63537064D01*
X130480219Y-63563273D01*
X130399715Y-63589950D01*
X130399704Y-63589955D01*
X130256612Y-63678216D01*
X130256608Y-63678219D01*
X130137719Y-63797108D01*
X130137716Y-63797112D01*
X130049455Y-63940204D01*
X130049450Y-63940215D01*
X130044048Y-63956518D01*
X129996564Y-64099815D01*
X129996564Y-64099816D01*
X129996563Y-64099816D01*
X129986500Y-64198318D01*
X129986500Y-64731681D01*
X129996563Y-64830183D01*
X130049450Y-64989784D01*
X130049455Y-64989795D01*
X130137716Y-65132887D01*
X130137719Y-65132891D01*
X130169647Y-65164819D01*
X130171953Y-65169043D01*
X130175995Y-65171663D01*
X130188541Y-65199421D01*
X130203132Y-65226142D01*
X130202788Y-65230942D01*
X130204772Y-65235331D01*
X130200320Y-65265460D01*
X130198148Y-65295834D01*
X130195068Y-65301000D01*
X130194559Y-65304451D01*
X130183909Y-65319725D01*
X130175362Y-65334067D01*
X130172610Y-65337217D01*
X130137719Y-65372109D01*
X130127094Y-65389334D01*
X130120341Y-65397067D01*
X130099185Y-65410546D01*
X130080535Y-65427322D01*
X130068601Y-65430033D01*
X130061416Y-65434612D01*
X130048673Y-65434562D01*
X130026945Y-65439500D01*
X129362004Y-65439500D01*
X129294965Y-65419815D01*
X129256465Y-65380596D01*
X129244968Y-65361956D01*
X129235339Y-65352327D01*
X129201854Y-65291004D01*
X129206838Y-65221312D01*
X129235345Y-65176959D01*
X129244573Y-65167731D01*
X129333542Y-65023492D01*
X129333547Y-65023481D01*
X129386855Y-64862606D01*
X129396999Y-64763322D01*
X129397000Y-64763309D01*
X129397000Y-64740000D01*
X128546000Y-64740000D01*
X128478961Y-64720315D01*
X128433206Y-64667511D01*
X128422000Y-64616000D01*
X128422000Y-64490000D01*
X128296000Y-64490000D01*
X128228961Y-64470315D01*
X128183206Y-64417511D01*
X128172000Y-64366000D01*
X128172000Y-64240000D01*
X128672000Y-64240000D01*
X129396999Y-64240000D01*
X129396999Y-64216692D01*
X129396998Y-64216677D01*
X129386855Y-64117392D01*
X129333547Y-63956518D01*
X129333542Y-63956507D01*
X129244575Y-63812271D01*
X129244572Y-63812267D01*
X129124732Y-63692427D01*
X129124728Y-63692424D01*
X128980492Y-63603457D01*
X128980481Y-63603452D01*
X128819606Y-63550144D01*
X128720322Y-63540000D01*
X128672000Y-63540000D01*
X128672000Y-64240000D01*
X128172000Y-64240000D01*
X128172000Y-63540000D01*
X128171999Y-63539999D01*
X128123693Y-63540000D01*
X128123675Y-63540001D01*
X128024392Y-63550144D01*
X127863518Y-63603452D01*
X127863513Y-63603454D01*
X127789597Y-63649047D01*
X127722204Y-63667487D01*
X127655541Y-63646564D01*
X127610771Y-63592922D01*
X127600500Y-63543508D01*
X127600500Y-63420945D01*
X127600500Y-63420943D01*
X127559577Y-63268216D01*
X127523473Y-63205681D01*
X127480524Y-63131290D01*
X127480521Y-63131286D01*
X127480520Y-63131284D01*
X127368716Y-63019480D01*
X127368715Y-63019479D01*
X127364385Y-63015149D01*
X127364374Y-63015139D01*
X126979590Y-62630355D01*
X126979588Y-62630352D01*
X126860717Y-62511481D01*
X126860716Y-62511480D01*
X126773904Y-62461360D01*
X126773904Y-62461359D01*
X126773900Y-62461358D01*
X126723785Y-62432423D01*
X126571057Y-62391499D01*
X126412943Y-62391499D01*
X126405347Y-62391499D01*
X126405331Y-62391500D01*
X126200500Y-62391500D01*
X126133461Y-62371815D01*
X126087706Y-62319011D01*
X126076500Y-62267500D01*
X126076500Y-58960322D01*
X126533001Y-58960322D01*
X126543144Y-59059607D01*
X126596452Y-59220481D01*
X126596457Y-59220492D01*
X126685424Y-59364728D01*
X126685427Y-59364732D01*
X126805267Y-59484572D01*
X126805271Y-59484575D01*
X126949507Y-59573542D01*
X126949518Y-59573547D01*
X127110393Y-59626855D01*
X127209683Y-59636999D01*
X127758000Y-59636999D01*
X127806308Y-59636999D01*
X127806322Y-59636998D01*
X127905607Y-59626855D01*
X128066481Y-59573547D01*
X128066492Y-59573542D01*
X128210728Y-59484575D01*
X128210732Y-59484572D01*
X128330572Y-59364732D01*
X128330575Y-59364728D01*
X128419542Y-59220492D01*
X128419547Y-59220481D01*
X128472855Y-59059606D01*
X128482999Y-58960322D01*
X128483000Y-58960309D01*
X128483000Y-58937000D01*
X127758000Y-58937000D01*
X127758000Y-59636999D01*
X127209683Y-59636999D01*
X127257999Y-59636998D01*
X127258000Y-59636998D01*
X127258000Y-58937000D01*
X126533001Y-58937000D01*
X126533001Y-58960322D01*
X126076500Y-58960322D01*
X126076500Y-58720096D01*
X126091210Y-58670000D01*
X129243496Y-58670000D01*
X129285968Y-58816195D01*
X129368278Y-58955374D01*
X129368285Y-58955383D01*
X129482616Y-59069714D01*
X129482625Y-59069721D01*
X129621804Y-59152031D01*
X129777089Y-59197145D01*
X129798000Y-59198789D01*
X130298000Y-59198789D01*
X130318910Y-59197145D01*
X130474195Y-59152031D01*
X130613374Y-59069721D01*
X130613383Y-59069714D01*
X130727714Y-58955383D01*
X130727721Y-58955374D01*
X130810031Y-58816195D01*
X130852504Y-58670000D01*
X130298000Y-58670000D01*
X130298000Y-59198789D01*
X129798000Y-59198789D01*
X129798000Y-58670000D01*
X129243496Y-58670000D01*
X126091210Y-58670000D01*
X126096185Y-58653057D01*
X126112815Y-58632419D01*
X126332937Y-58412297D01*
X126394259Y-58378813D01*
X126463951Y-58383797D01*
X126508298Y-58412298D01*
X126533000Y-58437000D01*
X128482999Y-58437000D01*
X128482999Y-58413692D01*
X128482998Y-58413677D01*
X128472855Y-58314392D01*
X128419547Y-58153518D01*
X128419542Y-58153507D01*
X128330575Y-58009271D01*
X128330572Y-58009267D01*
X128321339Y-58000034D01*
X128320985Y-57999386D01*
X128320341Y-57999025D01*
X128304253Y-57968745D01*
X128287854Y-57938711D01*
X128287906Y-57937975D01*
X128287560Y-57937323D01*
X128290393Y-57903198D01*
X128292838Y-57869019D01*
X128293301Y-57868181D01*
X128293342Y-57867693D01*
X128294880Y-57865329D01*
X128310610Y-57836912D01*
X128315569Y-57830442D01*
X128330968Y-57815044D01*
X128345767Y-57791050D01*
X128349594Y-57786059D01*
X128372922Y-57769008D01*
X128394412Y-57749679D01*
X128401605Y-57748044D01*
X128406003Y-57744830D01*
X128419248Y-57744034D01*
X128448004Y-57737500D01*
X129157862Y-57737500D01*
X129224901Y-57757185D01*
X129270656Y-57809989D01*
X129276936Y-57826899D01*
X129279846Y-57836912D01*
X129285506Y-57856396D01*
X129285507Y-57856398D01*
X129297909Y-57877368D01*
X129315093Y-57945092D01*
X129297912Y-58003608D01*
X129285968Y-58023804D01*
X129243496Y-58170000D01*
X129549648Y-58170000D01*
X129612766Y-58187267D01*
X129621605Y-58192494D01*
X129621608Y-58192494D01*
X129621610Y-58192496D01*
X129777002Y-58237642D01*
X129777005Y-58237642D01*
X129777007Y-58237643D01*
X129813310Y-58240500D01*
X129813318Y-58240500D01*
X130282682Y-58240500D01*
X130282690Y-58240500D01*
X130318993Y-58237643D01*
X130318995Y-58237642D01*
X130318997Y-58237642D01*
X130474389Y-58192496D01*
X130474389Y-58192495D01*
X130474395Y-58192494D01*
X130483233Y-58187267D01*
X130546352Y-58170000D01*
X130852504Y-58170000D01*
X130810031Y-58023803D01*
X130798090Y-58003613D01*
X130780906Y-57935889D01*
X130798089Y-57877369D01*
X130810494Y-57856395D01*
X130854624Y-57704500D01*
X130855642Y-57700997D01*
X130855643Y-57700991D01*
X130855681Y-57700504D01*
X130858500Y-57664690D01*
X130858500Y-57569500D01*
X130878185Y-57502461D01*
X130930989Y-57456706D01*
X130982500Y-57445500D01*
X131652945Y-57445500D01*
X131686142Y-57455248D01*
G37*
%TD.AperFunction*%
%TA.AperFunction,Conductor*%
G36*
X123559151Y-53125823D02*
G01*
X123572881Y-53126209D01*
X123590953Y-53138554D01*
X123611268Y-53146686D01*
X123628737Y-53164363D01*
X123630575Y-53165619D01*
X123631022Y-53166675D01*
X123632995Y-53168672D01*
X123659720Y-53203500D01*
X123698049Y-53253451D01*
X123818267Y-53345698D01*
X123958264Y-53403687D01*
X124070780Y-53418500D01*
X124248903Y-53418500D01*
X124315942Y-53438185D01*
X124361697Y-53490989D01*
X124371641Y-53560147D01*
X124342616Y-53623703D01*
X124336590Y-53630174D01*
X124210362Y-53756402D01*
X124091286Y-53875478D01*
X123979481Y-53987282D01*
X123979479Y-53987285D01*
X123941252Y-54053498D01*
X123941251Y-54053500D01*
X123900423Y-54124214D01*
X123900423Y-54124215D01*
X123859499Y-54276943D01*
X123859499Y-54276945D01*
X123859499Y-54445046D01*
X123859500Y-54445059D01*
X123859500Y-55269333D01*
X123839815Y-55336372D01*
X123823181Y-55357014D01*
X123779887Y-55400307D01*
X123779881Y-55400315D01*
X123697505Y-55539606D01*
X123697504Y-55539609D01*
X123652357Y-55695002D01*
X123652356Y-55695008D01*
X123649500Y-55731302D01*
X123649500Y-56140697D01*
X123652356Y-56176991D01*
X123652357Y-56176997D01*
X123697504Y-56332390D01*
X123697507Y-56332397D01*
X123709910Y-56353370D01*
X123727093Y-56421094D01*
X123709912Y-56479608D01*
X123697968Y-56499804D01*
X123655496Y-56646000D01*
X123961648Y-56646000D01*
X124024766Y-56663267D01*
X124033605Y-56668494D01*
X124033608Y-56668494D01*
X124033610Y-56668496D01*
X124189002Y-56713642D01*
X124189005Y-56713642D01*
X124189007Y-56713643D01*
X124225310Y-56716500D01*
X124225318Y-56716500D01*
X124694682Y-56716500D01*
X124694690Y-56716500D01*
X124730993Y-56713643D01*
X124730995Y-56713642D01*
X124730997Y-56713642D01*
X124886389Y-56668496D01*
X124886389Y-56668495D01*
X124886395Y-56668494D01*
X124895233Y-56663267D01*
X124958352Y-56646000D01*
X125264504Y-56646000D01*
X125222031Y-56499803D01*
X125210090Y-56479613D01*
X125192906Y-56411889D01*
X125210089Y-56353369D01*
X125222494Y-56332395D01*
X125267643Y-56176993D01*
X125270500Y-56140690D01*
X125270500Y-55731310D01*
X125267643Y-55695007D01*
X125266549Y-55691243D01*
X125222495Y-55539609D01*
X125222494Y-55539606D01*
X125222494Y-55539605D01*
X125140117Y-55400313D01*
X125140115Y-55400311D01*
X125140112Y-55400307D01*
X125096819Y-55357014D01*
X125063334Y-55295691D01*
X125060500Y-55269333D01*
X125060500Y-54656097D01*
X125080185Y-54589058D01*
X125096819Y-54568416D01*
X125321319Y-54343916D01*
X125382642Y-54310431D01*
X125452334Y-54315415D01*
X125508267Y-54357287D01*
X125532684Y-54422751D01*
X125533000Y-54431597D01*
X125533000Y-54880727D01*
X125540599Y-54938443D01*
X125547757Y-54992814D01*
X125547813Y-54993235D01*
X125547813Y-54993236D01*
X125591496Y-55098697D01*
X125605802Y-55133233D01*
X125698049Y-55253451D01*
X125818267Y-55345698D01*
X125958264Y-55403687D01*
X126065086Y-55417750D01*
X126070764Y-55418498D01*
X126070780Y-55418500D01*
X126070787Y-55418500D01*
X126296213Y-55418500D01*
X126296220Y-55418500D01*
X126408736Y-55403687D01*
X126408736Y-55403686D01*
X126416795Y-55402626D01*
X126417198Y-55405689D01*
X126449802Y-55405689D01*
X126450205Y-55402626D01*
X126458263Y-55403686D01*
X126458264Y-55403687D01*
X126570780Y-55418500D01*
X126570787Y-55418500D01*
X126796213Y-55418500D01*
X126796220Y-55418500D01*
X126908736Y-55403687D01*
X126908736Y-55403686D01*
X126916795Y-55402626D01*
X126917198Y-55405689D01*
X126949802Y-55405689D01*
X126950205Y-55402626D01*
X126958263Y-55403686D01*
X126958264Y-55403687D01*
X127070780Y-55418500D01*
X127070787Y-55418500D01*
X127296213Y-55418500D01*
X127296220Y-55418500D01*
X127408736Y-55403687D01*
X127408736Y-55403686D01*
X127416795Y-55402626D01*
X127417198Y-55405689D01*
X127449802Y-55405689D01*
X127450205Y-55402626D01*
X127458263Y-55403686D01*
X127458264Y-55403687D01*
X127570780Y-55418500D01*
X127570787Y-55418500D01*
X127796213Y-55418500D01*
X127796220Y-55418500D01*
X127908736Y-55403687D01*
X127908736Y-55403686D01*
X127916795Y-55402626D01*
X127917198Y-55405689D01*
X127949802Y-55405689D01*
X127950205Y-55402626D01*
X127958263Y-55403686D01*
X127958264Y-55403687D01*
X128070780Y-55418500D01*
X128070787Y-55418500D01*
X128296213Y-55418500D01*
X128296220Y-55418500D01*
X128408736Y-55403687D01*
X128408736Y-55403686D01*
X128416795Y-55402626D01*
X128417198Y-55405689D01*
X128449802Y-55405689D01*
X128450205Y-55402626D01*
X128458263Y-55403686D01*
X128458264Y-55403687D01*
X128570780Y-55418500D01*
X128570787Y-55418500D01*
X128796213Y-55418500D01*
X128796220Y-55418500D01*
X128908736Y-55403687D01*
X128908736Y-55403686D01*
X128916795Y-55402626D01*
X128917198Y-55405689D01*
X128949802Y-55405689D01*
X128950205Y-55402626D01*
X128958263Y-55403686D01*
X128958264Y-55403687D01*
X129070780Y-55418500D01*
X129070787Y-55418500D01*
X129296213Y-55418500D01*
X129296220Y-55418500D01*
X129408736Y-55403687D01*
X129408736Y-55403686D01*
X129414598Y-55402915D01*
X129414729Y-55402854D01*
X129414963Y-55402867D01*
X129416795Y-55402626D01*
X129416840Y-55402971D01*
X129431038Y-55403760D01*
X129450022Y-55402531D01*
X129458092Y-55403615D01*
X129458264Y-55403687D01*
X129475504Y-55405956D01*
X129475521Y-55405959D01*
X129507189Y-55420072D01*
X129539079Y-55434179D01*
X129539176Y-55434327D01*
X129539340Y-55434400D01*
X129558455Y-55463553D01*
X129577551Y-55492502D01*
X129577584Y-55492728D01*
X129577651Y-55492829D01*
X129577654Y-55493191D01*
X129582999Y-55528853D01*
X129582999Y-55586554D01*
X129582998Y-55586554D01*
X129623924Y-55739289D01*
X129623925Y-55739290D01*
X129641642Y-55769976D01*
X129641643Y-55769977D01*
X129689946Y-55853641D01*
X129702981Y-55876217D01*
X130155083Y-56328319D01*
X130159421Y-56336264D01*
X130166670Y-56341691D01*
X130175904Y-56366450D01*
X130188568Y-56389642D01*
X130187922Y-56398672D01*
X130191086Y-56407155D01*
X130185469Y-56432975D01*
X130183584Y-56459334D01*
X130177765Y-56468387D01*
X130176234Y-56475428D01*
X130155082Y-56503682D01*
X130103029Y-56555734D01*
X130041706Y-56589218D01*
X129972014Y-56584233D01*
X129963194Y-56580078D01*
X129956787Y-56577424D01*
X129956786Y-56577423D01*
X129956785Y-56577423D01*
X129804057Y-56536499D01*
X129645943Y-56536499D01*
X129638347Y-56536499D01*
X129638331Y-56536500D01*
X128448004Y-56536500D01*
X128380965Y-56516815D01*
X128342465Y-56477596D01*
X128338820Y-56471687D01*
X128330968Y-56458956D01*
X128211044Y-56339032D01*
X128211040Y-56339029D01*
X128066705Y-56250001D01*
X128066699Y-56249998D01*
X128066697Y-56249997D01*
X128004337Y-56229333D01*
X127905709Y-56196651D01*
X127806346Y-56186500D01*
X127209662Y-56186500D01*
X127209644Y-56186501D01*
X127110292Y-56196650D01*
X127110289Y-56196651D01*
X126949305Y-56249996D01*
X126949294Y-56250001D01*
X126804959Y-56339029D01*
X126685031Y-56458956D01*
X126654599Y-56508293D01*
X126636770Y-56524327D01*
X126622169Y-56543351D01*
X126608182Y-56550041D01*
X126602650Y-56555017D01*
X126590990Y-56559890D01*
X126586127Y-56561637D01*
X126527215Y-56577423D01*
X126512157Y-56586117D01*
X126502543Y-56591667D01*
X126502536Y-56591670D01*
X126390290Y-56656475D01*
X126390282Y-56656481D01*
X124995481Y-58051282D01*
X124995479Y-58051285D01*
X124991911Y-58057465D01*
X124961513Y-58110117D01*
X124916423Y-58188215D01*
X124875499Y-58340943D01*
X124875499Y-58340945D01*
X124875499Y-58509046D01*
X124875500Y-58509059D01*
X124875500Y-62299953D01*
X124855815Y-62366992D01*
X124803011Y-62412747D01*
X124783595Y-62419727D01*
X124736220Y-62432421D01*
X124736209Y-62432426D01*
X124599290Y-62511475D01*
X124599282Y-62511481D01*
X123905083Y-63205681D01*
X123843760Y-63239166D01*
X123817402Y-63242000D01*
X123088000Y-63242000D01*
X123020961Y-63222315D01*
X122975206Y-63169511D01*
X122964000Y-63118000D01*
X122964000Y-62992000D01*
X122838000Y-62992000D01*
X122770961Y-62972315D01*
X122725206Y-62919511D01*
X122714000Y-62868000D01*
X122714000Y-62742000D01*
X123214000Y-62742000D01*
X123913999Y-62742000D01*
X123913999Y-62693692D01*
X123913998Y-62693677D01*
X123903855Y-62594392D01*
X123850547Y-62433518D01*
X123850542Y-62433507D01*
X123761575Y-62289271D01*
X123761572Y-62289267D01*
X123641732Y-62169427D01*
X123641728Y-62169424D01*
X123497492Y-62080457D01*
X123497481Y-62080452D01*
X123336606Y-62027144D01*
X123237322Y-62017000D01*
X123214000Y-62017000D01*
X123214000Y-62742000D01*
X122714000Y-62742000D01*
X122714000Y-62055094D01*
X122620847Y-62024134D01*
X122591392Y-62027144D01*
X122430518Y-62080452D01*
X122430507Y-62080457D01*
X122286271Y-62169424D01*
X122286264Y-62169430D01*
X122277028Y-62178665D01*
X122276384Y-62179016D01*
X122276026Y-62179656D01*
X122245752Y-62195740D01*
X122215703Y-62212146D01*
X122214972Y-62212093D01*
X122214324Y-62212438D01*
X122180164Y-62209601D01*
X122146011Y-62207157D01*
X122145180Y-62206697D01*
X122144694Y-62206657D01*
X122142338Y-62205124D01*
X122113913Y-62189389D01*
X122107435Y-62184423D01*
X122092044Y-62169032D01*
X122068054Y-62154234D01*
X122063060Y-62150406D01*
X122046003Y-62127071D01*
X122026677Y-62105582D01*
X122025043Y-62098394D01*
X122021830Y-62093998D01*
X122021034Y-62080752D01*
X122014500Y-62051995D01*
X122014500Y-61890290D01*
X122034185Y-61823251D01*
X122086989Y-61777496D01*
X122143523Y-61769367D01*
X122150000Y-61764504D01*
X122150000Y-61764503D01*
X122650000Y-61764503D01*
X122796195Y-61722031D01*
X122935374Y-61639721D01*
X122935383Y-61639714D01*
X123049714Y-61525383D01*
X123049721Y-61525374D01*
X123132031Y-61386195D01*
X123132033Y-61386190D01*
X123177144Y-61230918D01*
X123177145Y-61230912D01*
X123178790Y-61210000D01*
X122650000Y-61210000D01*
X122650000Y-61764503D01*
X122150000Y-61764503D01*
X122150000Y-61458352D01*
X122167267Y-61395233D01*
X122172494Y-61386395D01*
X122217643Y-61230993D01*
X122220500Y-61194690D01*
X122220500Y-60725310D01*
X122217643Y-60689007D01*
X122208480Y-60657469D01*
X122172495Y-60533608D01*
X122172492Y-60533600D01*
X122167266Y-60524763D01*
X122150000Y-60461645D01*
X122150000Y-60155494D01*
X122650000Y-60155494D01*
X122650000Y-60710000D01*
X123178790Y-60710000D01*
X123177145Y-60689089D01*
X123132031Y-60533804D01*
X123049721Y-60394625D01*
X123049714Y-60394616D01*
X122935383Y-60280285D01*
X122935374Y-60280278D01*
X122796193Y-60197967D01*
X122796190Y-60197965D01*
X122650001Y-60155493D01*
X122650000Y-60155494D01*
X122150000Y-60155494D01*
X122150000Y-60155493D01*
X122146047Y-60152525D01*
X122104256Y-60096531D01*
X122096500Y-60053365D01*
X122096500Y-59865845D01*
X122116185Y-59798806D01*
X122168989Y-59753051D01*
X122180919Y-59751335D01*
X122206000Y-59732504D01*
X122206000Y-59732503D01*
X122706000Y-59732503D01*
X122852195Y-59690031D01*
X122991374Y-59607721D01*
X122991383Y-59607714D01*
X123105714Y-59493383D01*
X123105721Y-59493374D01*
X123188031Y-59354195D01*
X123188033Y-59354190D01*
X123233144Y-59198918D01*
X123233145Y-59198912D01*
X123234790Y-59178000D01*
X122706000Y-59178000D01*
X122706000Y-59732503D01*
X122206000Y-59732503D01*
X122206000Y-59426352D01*
X122223267Y-59363233D01*
X122228494Y-59354395D01*
X122271381Y-59206781D01*
X122273642Y-59198997D01*
X122273643Y-59198991D01*
X122275295Y-59178000D01*
X122276500Y-59162690D01*
X122276500Y-58693310D01*
X122273643Y-58657007D01*
X122272495Y-58653057D01*
X122228495Y-58501608D01*
X122228492Y-58501600D01*
X122223266Y-58492763D01*
X122206000Y-58429645D01*
X122206000Y-58128721D01*
X122197982Y-58123494D01*
X122706000Y-58123494D01*
X122706000Y-58678000D01*
X123234790Y-58678000D01*
X123233145Y-58657089D01*
X123188031Y-58501804D01*
X123105721Y-58362625D01*
X123105714Y-58362616D01*
X122991383Y-58248285D01*
X122991374Y-58248278D01*
X122852193Y-58165967D01*
X122852190Y-58165965D01*
X122706001Y-58123493D01*
X122706000Y-58123494D01*
X122197982Y-58123494D01*
X122152783Y-58094030D01*
X122141336Y-58080645D01*
X122126551Y-58071082D01*
X122119102Y-58054645D01*
X122107373Y-58040930D01*
X122104980Y-58023482D01*
X122097711Y-58007442D01*
X122096500Y-57990153D01*
X122096500Y-57823656D01*
X122116185Y-57756617D01*
X122146048Y-57724495D01*
X122178000Y-57700504D01*
X122178000Y-57700503D01*
X122678000Y-57700503D01*
X122824195Y-57658031D01*
X122963374Y-57575721D01*
X122963383Y-57575714D01*
X123077714Y-57461383D01*
X123077721Y-57461374D01*
X123160031Y-57322195D01*
X123160033Y-57322190D01*
X123205144Y-57166918D01*
X123205145Y-57166912D01*
X123206790Y-57146000D01*
X123655496Y-57146000D01*
X123697968Y-57292195D01*
X123780278Y-57431374D01*
X123780285Y-57431383D01*
X123894616Y-57545714D01*
X123894625Y-57545721D01*
X124033804Y-57628031D01*
X124189089Y-57673145D01*
X124210000Y-57674789D01*
X124710000Y-57674789D01*
X124730910Y-57673145D01*
X124886195Y-57628031D01*
X125025374Y-57545721D01*
X125025383Y-57545714D01*
X125139714Y-57431383D01*
X125139721Y-57431374D01*
X125222031Y-57292195D01*
X125264504Y-57146000D01*
X124710000Y-57146000D01*
X124710000Y-57674789D01*
X124210000Y-57674789D01*
X124210000Y-57146000D01*
X123655496Y-57146000D01*
X123206790Y-57146000D01*
X122678000Y-57146000D01*
X122678000Y-57700503D01*
X122178000Y-57700503D01*
X122178000Y-57394352D01*
X122195267Y-57331233D01*
X122200494Y-57322395D01*
X122245643Y-57166993D01*
X122248500Y-57130690D01*
X122248500Y-56661310D01*
X122245643Y-56625007D01*
X122235245Y-56589218D01*
X122200495Y-56469608D01*
X122200492Y-56469600D01*
X122195266Y-56460763D01*
X122178000Y-56397645D01*
X122178000Y-56096721D01*
X122169982Y-56091494D01*
X122678000Y-56091494D01*
X122678000Y-56646000D01*
X123206790Y-56646000D01*
X123205145Y-56625089D01*
X123160031Y-56469804D01*
X123077721Y-56330625D01*
X123077714Y-56330616D01*
X122963383Y-56216285D01*
X122963374Y-56216278D01*
X122824193Y-56133967D01*
X122824190Y-56133965D01*
X122678001Y-56091493D01*
X122678000Y-56091494D01*
X122169982Y-56091494D01*
X122124783Y-56062030D01*
X122113336Y-56048645D01*
X122098551Y-56039082D01*
X122091102Y-56022645D01*
X122079373Y-56008930D01*
X122076980Y-55991482D01*
X122069711Y-55975442D01*
X122068500Y-55958153D01*
X122068500Y-55801845D01*
X122088185Y-55734806D01*
X122140989Y-55689051D01*
X122152919Y-55687335D01*
X122178000Y-55668504D01*
X122178000Y-55668503D01*
X122678000Y-55668503D01*
X122824195Y-55626031D01*
X122963374Y-55543721D01*
X122963383Y-55543714D01*
X123077714Y-55429383D01*
X123077721Y-55429374D01*
X123160031Y-55290195D01*
X123160033Y-55290190D01*
X123205144Y-55134918D01*
X123205145Y-55134912D01*
X123206790Y-55114000D01*
X122678000Y-55114000D01*
X122678000Y-55668503D01*
X122178000Y-55668503D01*
X122178000Y-55362352D01*
X122195267Y-55299233D01*
X122200494Y-55290395D01*
X122203660Y-55279500D01*
X122245642Y-55134997D01*
X122245643Y-55134991D01*
X122245649Y-55134912D01*
X122248500Y-55098690D01*
X122248500Y-54988000D01*
X122268185Y-54920961D01*
X122320989Y-54875206D01*
X122372500Y-54864000D01*
X122428000Y-54864000D01*
X122428000Y-54738000D01*
X122447685Y-54670961D01*
X122500489Y-54625206D01*
X122552000Y-54614000D01*
X123206790Y-54614000D01*
X123205145Y-54593089D01*
X123160031Y-54437804D01*
X123077721Y-54298625D01*
X123077714Y-54298616D01*
X122963383Y-54184285D01*
X122963374Y-54184278D01*
X122824195Y-54101968D01*
X122824190Y-54101966D01*
X122786158Y-54090917D01*
X122727273Y-54053311D01*
X122698066Y-53989839D01*
X122707812Y-53920652D01*
X122733067Y-53884166D01*
X123304713Y-53312521D01*
X123304716Y-53312520D01*
X123416520Y-53200716D01*
X123434035Y-53170378D01*
X123443223Y-53160358D01*
X123461959Y-53149046D01*
X123477796Y-53133946D01*
X123491280Y-53131346D01*
X123503039Y-53124248D01*
X123524915Y-53124862D01*
X123546402Y-53120720D01*
X123559151Y-53125823D01*
G37*
%TD.AperFunction*%
%TA.AperFunction,Conductor*%
G36*
X126741629Y-46964055D02*
G01*
X126758984Y-46975208D01*
X126784986Y-46995160D01*
X126826189Y-47051587D01*
X126832378Y-47087102D01*
X126833500Y-47088086D01*
X126916230Y-47077195D01*
X126949969Y-47079415D01*
X126950205Y-47077626D01*
X126958263Y-47078686D01*
X126958264Y-47078687D01*
X127070780Y-47093500D01*
X127070787Y-47093500D01*
X127296213Y-47093500D01*
X127296220Y-47093500D01*
X127408736Y-47078687D01*
X127408736Y-47078686D01*
X127416795Y-47077626D01*
X127417198Y-47080689D01*
X127449802Y-47080689D01*
X127450205Y-47077626D01*
X127458263Y-47078686D01*
X127458264Y-47078687D01*
X127570780Y-47093500D01*
X127570787Y-47093500D01*
X127796213Y-47093500D01*
X127796220Y-47093500D01*
X127908736Y-47078687D01*
X127908736Y-47078686D01*
X127916795Y-47077626D01*
X127917198Y-47080689D01*
X127949802Y-47080689D01*
X127950205Y-47077626D01*
X127958263Y-47078686D01*
X127958264Y-47078687D01*
X128070780Y-47093500D01*
X128070787Y-47093500D01*
X128296213Y-47093500D01*
X128296220Y-47093500D01*
X128408736Y-47078687D01*
X128408736Y-47078686D01*
X128416795Y-47077626D01*
X128417198Y-47080689D01*
X128449802Y-47080689D01*
X128450205Y-47077626D01*
X128458263Y-47078686D01*
X128458264Y-47078687D01*
X128570780Y-47093500D01*
X128570787Y-47093500D01*
X128796213Y-47093500D01*
X128796220Y-47093500D01*
X128908736Y-47078687D01*
X128908736Y-47078686D01*
X128916795Y-47077626D01*
X128917198Y-47080689D01*
X128949802Y-47080689D01*
X128950205Y-47077626D01*
X128958263Y-47078686D01*
X128958264Y-47078687D01*
X129070780Y-47093500D01*
X129070787Y-47093500D01*
X129296213Y-47093500D01*
X129296220Y-47093500D01*
X129408736Y-47078687D01*
X129408736Y-47078686D01*
X129416795Y-47077626D01*
X129417198Y-47080689D01*
X129449802Y-47080689D01*
X129450205Y-47077626D01*
X129458263Y-47078686D01*
X129458264Y-47078687D01*
X129570780Y-47093500D01*
X129570787Y-47093500D01*
X129796213Y-47093500D01*
X129796220Y-47093500D01*
X129908736Y-47078687D01*
X129908736Y-47078686D01*
X129916795Y-47077626D01*
X129917198Y-47080689D01*
X129949802Y-47080689D01*
X129950205Y-47077626D01*
X129958263Y-47078686D01*
X129958264Y-47078687D01*
X130070780Y-47093500D01*
X130070787Y-47093500D01*
X130296213Y-47093500D01*
X130296220Y-47093500D01*
X130296226Y-47093499D01*
X130300272Y-47093234D01*
X130300383Y-47094935D01*
X130362512Y-47104587D01*
X130414795Y-47150937D01*
X130433719Y-47218195D01*
X130413277Y-47285007D01*
X130412830Y-47285681D01*
X130354608Y-47372816D01*
X130354602Y-47372827D01*
X130294264Y-47518498D01*
X130294261Y-47518508D01*
X130263362Y-47673848D01*
X130242766Y-47721564D01*
X130236753Y-47730010D01*
X130202980Y-47763784D01*
X130164140Y-47831057D01*
X130161195Y-47836156D01*
X130161194Y-47836159D01*
X130130800Y-47888804D01*
X130123923Y-47900715D01*
X130082999Y-48053443D01*
X130082999Y-48053445D01*
X130082999Y-48221546D01*
X130083000Y-48221559D01*
X130083000Y-52832146D01*
X130082833Y-52832713D01*
X130082995Y-52833283D01*
X130072997Y-52866209D01*
X130063315Y-52899185D01*
X130062868Y-52899572D01*
X130062696Y-52900139D01*
X130036464Y-52922451D01*
X130010511Y-52944940D01*
X130009775Y-52945152D01*
X130009475Y-52945408D01*
X129983273Y-52952802D01*
X129975521Y-52955041D01*
X129975494Y-52955044D01*
X129958264Y-52957313D01*
X129958092Y-52957383D01*
X129950021Y-52958469D01*
X129929977Y-52955399D01*
X129917184Y-52955399D01*
X129916792Y-52958374D01*
X129908737Y-52957313D01*
X129908736Y-52957313D01*
X129874472Y-52952802D01*
X129796227Y-52942500D01*
X129796220Y-52942500D01*
X129570780Y-52942500D01*
X129570772Y-52942500D01*
X129492528Y-52952802D01*
X129458264Y-52957313D01*
X129458262Y-52957313D01*
X129450208Y-52958374D01*
X129449816Y-52955399D01*
X129417184Y-52955399D01*
X129416792Y-52958374D01*
X129408737Y-52957313D01*
X129408736Y-52957313D01*
X129374472Y-52952802D01*
X129296227Y-52942500D01*
X129296220Y-52942500D01*
X129070780Y-52942500D01*
X129070772Y-52942500D01*
X128992528Y-52952802D01*
X128958264Y-52957313D01*
X128958262Y-52957313D01*
X128950208Y-52958374D01*
X128949816Y-52955399D01*
X128917184Y-52955399D01*
X128916792Y-52958374D01*
X128908737Y-52957313D01*
X128908736Y-52957313D01*
X128874472Y-52952802D01*
X128796227Y-52942500D01*
X128796220Y-52942500D01*
X128570780Y-52942500D01*
X128570772Y-52942500D01*
X128492528Y-52952802D01*
X128458264Y-52957313D01*
X128458262Y-52957313D01*
X128450208Y-52958374D01*
X128449816Y-52955399D01*
X128417184Y-52955399D01*
X128416792Y-52958374D01*
X128408737Y-52957313D01*
X128408736Y-52957313D01*
X128374472Y-52952802D01*
X128296227Y-52942500D01*
X128296220Y-52942500D01*
X128070780Y-52942500D01*
X128070772Y-52942500D01*
X127992528Y-52952802D01*
X127958264Y-52957313D01*
X127958262Y-52957313D01*
X127950208Y-52958374D01*
X127949816Y-52955399D01*
X127917184Y-52955399D01*
X127916792Y-52958374D01*
X127908737Y-52957313D01*
X127908736Y-52957313D01*
X127874472Y-52952802D01*
X127796227Y-52942500D01*
X127796220Y-52942500D01*
X127570780Y-52942500D01*
X127570772Y-52942500D01*
X127492528Y-52952802D01*
X127458264Y-52957313D01*
X127458262Y-52957313D01*
X127450208Y-52958374D01*
X127449816Y-52955399D01*
X127417184Y-52955399D01*
X127416792Y-52958374D01*
X127408737Y-52957313D01*
X127408736Y-52957313D01*
X127374472Y-52952802D01*
X127296227Y-52942500D01*
X127296220Y-52942500D01*
X127070780Y-52942500D01*
X127070772Y-52942500D01*
X126992528Y-52952802D01*
X126958264Y-52957313D01*
X126958262Y-52957313D01*
X126950208Y-52958374D01*
X126950003Y-52956824D01*
X126924117Y-52959219D01*
X126910919Y-52958217D01*
X126908736Y-52957313D01*
X126796220Y-52942500D01*
X126703795Y-52942500D01*
X126699117Y-52942145D01*
X126670646Y-52931384D01*
X126641461Y-52922815D01*
X126638290Y-52919156D01*
X126633760Y-52917444D01*
X126615626Y-52893000D01*
X126595706Y-52870011D01*
X126594516Y-52864545D01*
X126592131Y-52861329D01*
X126591377Y-52850115D01*
X126584500Y-52818500D01*
X126584500Y-50563521D01*
X126584500Y-50563519D01*
X126543577Y-50410792D01*
X126479090Y-50299096D01*
X126464524Y-50273866D01*
X126464521Y-50273862D01*
X126464520Y-50273860D01*
X126352716Y-50162056D01*
X126352715Y-50162055D01*
X126348385Y-50157725D01*
X126348374Y-50157715D01*
X126097013Y-49906354D01*
X126089944Y-49899285D01*
X126089944Y-49899284D01*
X126045318Y-49854658D01*
X126027379Y-49821804D01*
X126011834Y-49793336D01*
X126009000Y-49766978D01*
X126009000Y-49655286D01*
X126009000Y-49655280D01*
X125994187Y-49542764D01*
X125994186Y-49542763D01*
X125993126Y-49534705D01*
X125996189Y-49534301D01*
X125996189Y-49501698D01*
X125993126Y-49501295D01*
X125997877Y-49465206D01*
X126009000Y-49380720D01*
X126009000Y-49155280D01*
X125994187Y-49042764D01*
X125994186Y-49042763D01*
X125993126Y-49034705D01*
X125996189Y-49034301D01*
X125996189Y-49001698D01*
X125993126Y-49001295D01*
X125996456Y-48976000D01*
X126009000Y-48880720D01*
X126009000Y-48655280D01*
X125994187Y-48542764D01*
X125994186Y-48542763D01*
X125993126Y-48534705D01*
X125996189Y-48534301D01*
X125996189Y-48501698D01*
X125993126Y-48501295D01*
X125995752Y-48481345D01*
X126009000Y-48380720D01*
X126009000Y-48155280D01*
X125994187Y-48042764D01*
X125994186Y-48042763D01*
X125993126Y-48034705D01*
X125996189Y-48034301D01*
X125996189Y-48001698D01*
X125993126Y-48001295D01*
X125994284Y-47992500D01*
X126009000Y-47880720D01*
X126009000Y-47655280D01*
X125994187Y-47542764D01*
X125994186Y-47542763D01*
X125993126Y-47534705D01*
X125996189Y-47534301D01*
X125996189Y-47501698D01*
X125993126Y-47501295D01*
X125996221Y-47477785D01*
X126009000Y-47380720D01*
X126009000Y-47217500D01*
X126028685Y-47150461D01*
X126081489Y-47104706D01*
X126133000Y-47093500D01*
X126296213Y-47093500D01*
X126296220Y-47093500D01*
X126408736Y-47078687D01*
X126548733Y-47020698D01*
X126608015Y-46975208D01*
X126673184Y-46950016D01*
X126741629Y-46964055D01*
G37*
%TD.AperFunction*%
%TA.AperFunction,Conductor*%
G36*
X131591127Y-48415066D02*
G01*
X131622152Y-48421815D01*
X131625866Y-48424595D01*
X131627891Y-48425151D01*
X131650401Y-48442962D01*
X131650406Y-48442966D01*
X131688784Y-48481344D01*
X131688785Y-48481344D01*
X131695854Y-48488413D01*
X131821681Y-48614240D01*
X131855166Y-48675563D01*
X131858000Y-48701921D01*
X131858000Y-48880727D01*
X131873874Y-49001292D01*
X131870899Y-49001683D01*
X131870899Y-49034316D01*
X131873874Y-49034708D01*
X131858000Y-49155272D01*
X131858000Y-49380727D01*
X131873874Y-49501292D01*
X131870899Y-49501683D01*
X131870899Y-49534316D01*
X131873874Y-49534708D01*
X131858000Y-49655272D01*
X131858000Y-49880727D01*
X131868999Y-49964271D01*
X131871247Y-49981344D01*
X131873874Y-50001292D01*
X131870899Y-50001683D01*
X131870899Y-50034316D01*
X131873874Y-50034708D01*
X131858000Y-50155272D01*
X131858000Y-50380727D01*
X131873874Y-50501292D01*
X131870899Y-50501683D01*
X131870899Y-50534316D01*
X131873874Y-50534708D01*
X131872813Y-50542762D01*
X131872813Y-50542764D01*
X131871368Y-50553738D01*
X131858000Y-50655272D01*
X131858000Y-50880727D01*
X131873874Y-51001292D01*
X131870899Y-51001683D01*
X131870899Y-51034316D01*
X131873874Y-51034708D01*
X131872813Y-51042762D01*
X131872813Y-51042764D01*
X131869438Y-51068393D01*
X131858000Y-51155272D01*
X131858000Y-51380727D01*
X131873874Y-51501292D01*
X131870899Y-51501683D01*
X131870899Y-51534316D01*
X131873874Y-51534708D01*
X131858000Y-51655272D01*
X131858000Y-51880727D01*
X131873874Y-52001292D01*
X131870899Y-52001683D01*
X131870899Y-52034316D01*
X131873874Y-52034708D01*
X131872813Y-52042762D01*
X131872813Y-52042764D01*
X131869862Y-52065181D01*
X131858000Y-52155272D01*
X131858000Y-52380727D01*
X131873874Y-52501292D01*
X131870899Y-52501683D01*
X131870899Y-52534316D01*
X131873874Y-52534708D01*
X131858000Y-52655272D01*
X131858000Y-52818500D01*
X131838315Y-52885539D01*
X131785511Y-52931294D01*
X131734000Y-52942500D01*
X131570772Y-52942500D01*
X131452058Y-52958130D01*
X131451518Y-52958385D01*
X131416226Y-52958804D01*
X131391811Y-52955589D01*
X131327915Y-52927320D01*
X131289446Y-52868995D01*
X131284000Y-52832650D01*
X131284000Y-48610182D01*
X131303685Y-48543143D01*
X131356489Y-48497388D01*
X131360548Y-48495621D01*
X131443172Y-48461397D01*
X131443172Y-48461396D01*
X131443179Y-48461394D01*
X131493835Y-48427546D01*
X131524132Y-48418059D01*
X131553879Y-48406964D01*
X131557234Y-48407693D01*
X131560511Y-48406668D01*
X131591127Y-48415066D01*
G37*
%TD.AperFunction*%
%TA.AperFunction,Conductor*%
G36*
X121316442Y-49525685D02*
G01*
X121337081Y-49542317D01*
X121551284Y-49756520D01*
X121551286Y-49756521D01*
X121551290Y-49756524D01*
X121604906Y-49787479D01*
X121604911Y-49787481D01*
X121688209Y-49835574D01*
X121688210Y-49835575D01*
X121688212Y-49835575D01*
X121688215Y-49835577D01*
X121840943Y-49876501D01*
X121840946Y-49876501D01*
X121999057Y-49876501D01*
X121999058Y-49876501D01*
X122013146Y-49872725D01*
X122045241Y-49868500D01*
X122210903Y-49868500D01*
X122277942Y-49888185D01*
X122323697Y-49940989D01*
X122333641Y-50010147D01*
X122304616Y-50073703D01*
X122298584Y-50080181D01*
X121337084Y-51041681D01*
X121275761Y-51075166D01*
X121249403Y-51078000D01*
X120894352Y-51078000D01*
X120831233Y-51060732D01*
X120822395Y-51055506D01*
X120822393Y-51055505D01*
X120822389Y-51055503D01*
X120666997Y-51010357D01*
X120666991Y-51010356D01*
X120630697Y-51007500D01*
X120630690Y-51007500D01*
X120161310Y-51007500D01*
X120161302Y-51007500D01*
X120125008Y-51010356D01*
X120125002Y-51010357D01*
X119969610Y-51055503D01*
X119969605Y-51055506D01*
X119960766Y-51060732D01*
X119897648Y-51078000D01*
X119535362Y-51078000D01*
X119468323Y-51058315D01*
X119458004Y-51050000D01*
X118488000Y-51050000D01*
X118420961Y-51030315D01*
X118375206Y-50977511D01*
X118364000Y-50926000D01*
X118364000Y-50674000D01*
X118383685Y-50606961D01*
X118436489Y-50561206D01*
X118488000Y-50550000D01*
X119614638Y-50550000D01*
X119681677Y-50569685D01*
X119691996Y-50578000D01*
X120146000Y-50578000D01*
X120646000Y-50578000D01*
X121200504Y-50578000D01*
X121158031Y-50431804D01*
X121112681Y-50355121D01*
X121095498Y-50287397D01*
X121112681Y-50228879D01*
X121158031Y-50152195D01*
X121200504Y-50006000D01*
X120646000Y-50006000D01*
X120646000Y-50578000D01*
X120146000Y-50578000D01*
X120146000Y-49880000D01*
X120165685Y-49812961D01*
X120218489Y-49767206D01*
X120270000Y-49756000D01*
X120396000Y-49756000D01*
X120396000Y-49700500D01*
X120415685Y-49633461D01*
X120468489Y-49587706D01*
X120520000Y-49576500D01*
X120630682Y-49576500D01*
X120630690Y-49576500D01*
X120666993Y-49573643D01*
X120666995Y-49573642D01*
X120666997Y-49573642D01*
X120822389Y-49528496D01*
X120822389Y-49528495D01*
X120822395Y-49528494D01*
X120831233Y-49523267D01*
X120894352Y-49506000D01*
X121249403Y-49506000D01*
X121316442Y-49525685D01*
G37*
%TD.AperFunction*%
%TA.AperFunction,Conductor*%
G36*
X117148580Y-46871163D02*
G01*
X117172517Y-46880091D01*
X117232127Y-46886500D01*
X118121902Y-46886499D01*
X118188941Y-46906183D01*
X118209583Y-46922818D01*
X118387139Y-47100374D01*
X118387149Y-47100385D01*
X118391479Y-47104715D01*
X118391480Y-47104716D01*
X118503284Y-47216520D01*
X118590095Y-47266639D01*
X118590097Y-47266641D01*
X118623075Y-47285681D01*
X118640215Y-47295577D01*
X118792942Y-47336500D01*
X118792943Y-47336500D01*
X122127903Y-47336500D01*
X122194942Y-47356185D01*
X122215583Y-47372818D01*
X122591284Y-47748520D01*
X122591286Y-47748521D01*
X122591290Y-47748524D01*
X122681724Y-47800735D01*
X122728216Y-47827577D01*
X122880943Y-47868501D01*
X122880945Y-47868501D01*
X123046654Y-47868501D01*
X123046670Y-47868500D01*
X123422646Y-47868500D01*
X123423213Y-47868666D01*
X123423783Y-47868505D01*
X123456709Y-47878502D01*
X123489685Y-47888185D01*
X123490072Y-47888631D01*
X123490639Y-47888804D01*
X123512951Y-47915035D01*
X123535440Y-47940989D01*
X123535652Y-47941724D01*
X123535908Y-47942025D01*
X123543302Y-47968226D01*
X123545541Y-47975979D01*
X123547813Y-47993236D01*
X123547883Y-47993407D01*
X123548969Y-48001479D01*
X123545899Y-48021523D01*
X123545899Y-48034316D01*
X123548874Y-48034708D01*
X123547813Y-48042762D01*
X123547813Y-48042764D01*
X123545083Y-48063504D01*
X123533000Y-48155272D01*
X123533000Y-48380727D01*
X123548585Y-48499100D01*
X123548645Y-48499228D01*
X123548632Y-48499457D01*
X123548874Y-48501292D01*
X123548530Y-48501337D01*
X123547763Y-48515500D01*
X123548969Y-48534521D01*
X123547883Y-48542592D01*
X123547813Y-48542764D01*
X123545544Y-48559994D01*
X123545541Y-48560021D01*
X123531349Y-48591865D01*
X123517317Y-48623584D01*
X123517171Y-48623680D01*
X123517100Y-48623840D01*
X123487994Y-48642924D01*
X123458991Y-48662054D01*
X123458768Y-48662087D01*
X123458670Y-48662152D01*
X123458315Y-48662155D01*
X123422646Y-48667500D01*
X122212098Y-48667500D01*
X122145059Y-48647815D01*
X122124417Y-48631181D01*
X121808717Y-48315481D01*
X121808709Y-48315475D01*
X121701279Y-48253451D01*
X121701278Y-48253450D01*
X121701278Y-48253451D01*
X121671785Y-48236423D01*
X121657215Y-48232519D01*
X121519057Y-48195499D01*
X121360943Y-48195499D01*
X121353347Y-48195499D01*
X121353331Y-48195500D01*
X121062667Y-48195500D01*
X120995628Y-48175815D01*
X120974986Y-48159181D01*
X120961692Y-48145887D01*
X120961684Y-48145881D01*
X120825237Y-48065187D01*
X120822395Y-48063506D01*
X120822394Y-48063505D01*
X120822393Y-48063505D01*
X120822390Y-48063504D01*
X120666997Y-48018357D01*
X120666991Y-48018356D01*
X120630697Y-48015500D01*
X120630690Y-48015500D01*
X120161310Y-48015500D01*
X120161302Y-48015500D01*
X120125008Y-48018356D01*
X120125002Y-48018357D01*
X119969609Y-48063504D01*
X119969606Y-48063505D01*
X119830315Y-48145881D01*
X119830307Y-48145887D01*
X119715887Y-48260307D01*
X119715880Y-48260316D01*
X119662698Y-48350243D01*
X119611629Y-48397927D01*
X119542887Y-48410430D01*
X119478298Y-48383784D01*
X119450427Y-48352218D01*
X119406712Y-48281344D01*
X119282657Y-48157289D01*
X119282656Y-48157288D01*
X119180991Y-48094581D01*
X119133336Y-48065187D01*
X119133331Y-48065185D01*
X119119733Y-48060679D01*
X118966797Y-48010001D01*
X118966795Y-48010000D01*
X118864010Y-47999500D01*
X117863998Y-47999500D01*
X117863980Y-47999501D01*
X117761203Y-48010000D01*
X117761200Y-48010001D01*
X117594668Y-48065185D01*
X117594663Y-48065187D01*
X117445345Y-48157287D01*
X117351327Y-48251305D01*
X117290003Y-48284789D01*
X117220312Y-48279805D01*
X117175965Y-48251304D01*
X117082345Y-48157684D01*
X116933124Y-48065643D01*
X116933119Y-48065641D01*
X116766697Y-48010494D01*
X116766690Y-48010493D01*
X116663986Y-48000000D01*
X116414000Y-48000000D01*
X116414000Y-48976000D01*
X116394315Y-49043039D01*
X116341511Y-49088794D01*
X116290000Y-49100000D01*
X116038000Y-49100000D01*
X115970961Y-49080315D01*
X115925206Y-49027511D01*
X115914000Y-48976000D01*
X115914000Y-48054597D01*
X115933685Y-47987558D01*
X115950319Y-47966916D01*
X116439450Y-47477785D01*
X117017571Y-46899663D01*
X117033216Y-46891120D01*
X117045825Y-46878513D01*
X117063245Y-46874723D01*
X117078892Y-46866180D01*
X117096675Y-46867451D01*
X117114098Y-46863662D01*
X117148580Y-46871163D01*
G37*
%TD.AperFunction*%
%TA.AperFunction,Conductor*%
G36*
X152749212Y-34028508D02*
G01*
X153287113Y-34034551D01*
X153353925Y-34054987D01*
X153399084Y-34108302D01*
X153409563Y-34164735D01*
X151389960Y-74556780D01*
X151366952Y-74622753D01*
X151311930Y-74665814D01*
X151264639Y-74674579D01*
X108833001Y-74169440D01*
X108766201Y-74148959D01*
X108721077Y-74095614D01*
X108710487Y-74046999D01*
X108704510Y-73568800D01*
X108704500Y-73567250D01*
X108704500Y-53419054D01*
X114207498Y-53419054D01*
X114248423Y-53571785D01*
X114253166Y-53580000D01*
X114327477Y-53708712D01*
X114327481Y-53708717D01*
X114446349Y-53827585D01*
X114446355Y-53827590D01*
X114831139Y-54212374D01*
X114831149Y-54212385D01*
X114835479Y-54216715D01*
X114835480Y-54216716D01*
X114947284Y-54328520D01*
X114947286Y-54328521D01*
X114947290Y-54328524D01*
X114997110Y-54357287D01*
X115084216Y-54407577D01*
X115185971Y-54434842D01*
X115236942Y-54448500D01*
X115236943Y-54448500D01*
X120568051Y-54448500D01*
X120635090Y-54468185D01*
X120680845Y-54520989D01*
X120690285Y-54586645D01*
X120690854Y-54586690D01*
X120690655Y-54589216D01*
X120690789Y-54590147D01*
X120690389Y-54592597D01*
X120687500Y-54629302D01*
X120687500Y-55098697D01*
X120690356Y-55134991D01*
X120690357Y-55134997D01*
X120735504Y-55290390D01*
X120735505Y-55290393D01*
X120803690Y-55405689D01*
X120817883Y-55429687D01*
X120831180Y-55442984D01*
X120864666Y-55504305D01*
X120867500Y-55530666D01*
X120867500Y-56229333D01*
X120847815Y-56296372D01*
X120831181Y-56317014D01*
X120817887Y-56330307D01*
X120817881Y-56330315D01*
X120735505Y-56469606D01*
X120735504Y-56469609D01*
X120690357Y-56625002D01*
X120690356Y-56625008D01*
X120687500Y-56661302D01*
X120687500Y-57130697D01*
X120690356Y-57166991D01*
X120690357Y-57166997D01*
X120735504Y-57322390D01*
X120735505Y-57322393D01*
X120817881Y-57461684D01*
X120817887Y-57461692D01*
X120858003Y-57501807D01*
X120866019Y-57515689D01*
X120876198Y-57524941D01*
X120890094Y-57557382D01*
X120891272Y-57561780D01*
X120895500Y-57593880D01*
X120895500Y-58261333D01*
X120875815Y-58328372D01*
X120859181Y-58349014D01*
X120845887Y-58362307D01*
X120845881Y-58362315D01*
X120763505Y-58501606D01*
X120763504Y-58501609D01*
X120718357Y-58657002D01*
X120718356Y-58657008D01*
X120715500Y-58693302D01*
X120715500Y-59162697D01*
X120718356Y-59198991D01*
X120718357Y-59198997D01*
X120763504Y-59354390D01*
X120763505Y-59354393D01*
X120763506Y-59354395D01*
X120765638Y-59358000D01*
X120804157Y-59423133D01*
X120845883Y-59493687D01*
X120859180Y-59506984D01*
X120892666Y-59568305D01*
X120895500Y-59594666D01*
X120895500Y-60237333D01*
X120875815Y-60304372D01*
X120859181Y-60325014D01*
X120789887Y-60394307D01*
X120789881Y-60394315D01*
X120707505Y-60533606D01*
X120707504Y-60533609D01*
X120662357Y-60689002D01*
X120662356Y-60689008D01*
X120659500Y-60725302D01*
X120659500Y-61194697D01*
X120662356Y-61230991D01*
X120662357Y-61230997D01*
X120707504Y-61386390D01*
X120707505Y-61386393D01*
X120793854Y-61532402D01*
X120791805Y-61533613D01*
X120813013Y-61587610D01*
X120813500Y-61598588D01*
X120813500Y-62051995D01*
X120793815Y-62119034D01*
X120754600Y-62157532D01*
X120735954Y-62169033D01*
X120616029Y-62288959D01*
X120527001Y-62433294D01*
X120526996Y-62433305D01*
X120473651Y-62594290D01*
X120463500Y-62693647D01*
X120463500Y-63290337D01*
X120463501Y-63290355D01*
X120473650Y-63389707D01*
X120473651Y-63389710D01*
X120526996Y-63550694D01*
X120527001Y-63550705D01*
X120616029Y-63695040D01*
X120616032Y-63695044D01*
X120735957Y-63814969D01*
X120743965Y-63819908D01*
X120754594Y-63826464D01*
X120801319Y-63878410D01*
X120813499Y-63932003D01*
X120813499Y-64089054D01*
X120813498Y-64089054D01*
X120813499Y-64089057D01*
X120854423Y-64241785D01*
X120878920Y-64284215D01*
X120933477Y-64378712D01*
X120933481Y-64378717D01*
X121052349Y-64497585D01*
X121052355Y-64497590D01*
X121435139Y-64880374D01*
X121435149Y-64880385D01*
X121439479Y-64884715D01*
X121439480Y-64884716D01*
X121551284Y-64996520D01*
X121613431Y-65032400D01*
X121643016Y-65049481D01*
X121688212Y-65075576D01*
X121688214Y-65075576D01*
X121688215Y-65075577D01*
X121840943Y-65116500D01*
X123357331Y-65116500D01*
X123357347Y-65116501D01*
X123364943Y-65116501D01*
X123523054Y-65116501D01*
X123523057Y-65116501D01*
X123675785Y-65075577D01*
X123750569Y-65032400D01*
X123812716Y-64996520D01*
X123924520Y-64884716D01*
X123924520Y-64884714D01*
X123934724Y-64874511D01*
X123934727Y-64874506D01*
X124699276Y-64109958D01*
X124760598Y-64076474D01*
X124830290Y-64081458D01*
X124886223Y-64123330D01*
X124910640Y-64188794D01*
X124910314Y-64210242D01*
X124907000Y-64242675D01*
X124907000Y-64266000D01*
X125758000Y-64266000D01*
X125825039Y-64285685D01*
X125870794Y-64338489D01*
X125882000Y-64390000D01*
X125882000Y-64642000D01*
X125862315Y-64709039D01*
X125809511Y-64754794D01*
X125758000Y-64766000D01*
X124907001Y-64766000D01*
X124907001Y-64789322D01*
X124917144Y-64888607D01*
X124970452Y-65049481D01*
X124970457Y-65049492D01*
X125059424Y-65193728D01*
X125059427Y-65193732D01*
X125068660Y-65202965D01*
X125102145Y-65264288D01*
X125097161Y-65333980D01*
X125068663Y-65378324D01*
X125059033Y-65387953D01*
X125059029Y-65387959D01*
X124970001Y-65532294D01*
X124969996Y-65532305D01*
X124916651Y-65693290D01*
X124906500Y-65792647D01*
X124906500Y-66339337D01*
X124906501Y-66339355D01*
X124916650Y-66438707D01*
X124916651Y-66438710D01*
X124969996Y-66599694D01*
X124970001Y-66599705D01*
X125059029Y-66744040D01*
X125059032Y-66744044D01*
X125178956Y-66863968D01*
X125222597Y-66890886D01*
X125269321Y-66942832D01*
X125281500Y-66996424D01*
X125281500Y-67513330D01*
X125281499Y-67513348D01*
X125281499Y-67679054D01*
X125281498Y-67679054D01*
X125297302Y-67738036D01*
X125322423Y-67831785D01*
X125345715Y-67872127D01*
X125386738Y-67943181D01*
X125401479Y-67968714D01*
X125401481Y-67968717D01*
X125520349Y-68087585D01*
X125520354Y-68087589D01*
X126733284Y-69300520D01*
X126733286Y-69300521D01*
X126733290Y-69300524D01*
X126820093Y-69350639D01*
X126870216Y-69379577D01*
X127022943Y-69420501D01*
X127022945Y-69420501D01*
X127188654Y-69420501D01*
X127188670Y-69420500D01*
X133111331Y-69420500D01*
X133111347Y-69420501D01*
X133118943Y-69420501D01*
X133277054Y-69420501D01*
X133277057Y-69420501D01*
X133429785Y-69379577D01*
X133479904Y-69350639D01*
X133566716Y-69300520D01*
X133655749Y-69211486D01*
X133661681Y-69206845D01*
X133687425Y-69196610D01*
X133711739Y-69183334D01*
X133724186Y-69181995D01*
X133726608Y-69181033D01*
X133728927Y-69181485D01*
X133738098Y-69180500D01*
X133967084Y-69180500D01*
X134034123Y-69200185D01*
X134079878Y-69252989D01*
X134081574Y-69257112D01*
X134166967Y-69429292D01*
X134166969Y-69429295D01*
X134286277Y-69577721D01*
X134286278Y-69577722D01*
X134434704Y-69697030D01*
X134434707Y-69697032D01*
X134605302Y-69781639D01*
X134605303Y-69781639D01*
X134605307Y-69781641D01*
X134790111Y-69827600D01*
X134832877Y-69830500D01*
X136235122Y-69830499D01*
X136277889Y-69827600D01*
X136462693Y-69781641D01*
X136633296Y-69697030D01*
X136781722Y-69577722D01*
X136901030Y-69429296D01*
X136985641Y-69258693D01*
X136988628Y-69252671D01*
X136990535Y-69253617D01*
X137026131Y-69205590D01*
X137091478Y-69180860D01*
X137100916Y-69180500D01*
X137581331Y-69180500D01*
X137581347Y-69180501D01*
X137588943Y-69180501D01*
X137747054Y-69180501D01*
X137747057Y-69180501D01*
X137899785Y-69139577D01*
X137949904Y-69110639D01*
X138036716Y-69060520D01*
X138148520Y-68948716D01*
X138148520Y-68948714D01*
X138158728Y-68938507D01*
X138158729Y-68938504D01*
X138698662Y-68398572D01*
X138759983Y-68365089D01*
X138762150Y-68364638D01*
X138820085Y-68353113D01*
X138917497Y-68333737D01*
X139063179Y-68273394D01*
X139194289Y-68185789D01*
X139305789Y-68074289D01*
X139393394Y-67943179D01*
X139453737Y-67797497D01*
X139484500Y-67642842D01*
X139484500Y-67485158D01*
X139484500Y-67485155D01*
X139484499Y-67485153D01*
X139481346Y-67469304D01*
X139453737Y-67330503D01*
X139431874Y-67277721D01*
X139393397Y-67184827D01*
X139393390Y-67184814D01*
X139318939Y-67073391D01*
X139298061Y-67006714D01*
X139316545Y-66939333D01*
X139368524Y-66892643D01*
X139422041Y-66880500D01*
X140209501Y-66880500D01*
X140276540Y-66900185D01*
X140322295Y-66952989D01*
X140333501Y-67004500D01*
X140333501Y-67738034D01*
X140344113Y-67857415D01*
X140400089Y-68053045D01*
X140400090Y-68053048D01*
X140400091Y-68053049D01*
X140494302Y-68233407D01*
X140494304Y-68233409D01*
X140622890Y-68391109D01*
X140716803Y-68467684D01*
X140780593Y-68519698D01*
X140960951Y-68613909D01*
X141156582Y-68669886D01*
X141275963Y-68680500D01*
X142392036Y-68680499D01*
X142511418Y-68669886D01*
X142707049Y-68613909D01*
X142887407Y-68519698D01*
X143045109Y-68391109D01*
X143173698Y-68233407D01*
X143267909Y-68053049D01*
X143323886Y-67857418D01*
X143334500Y-67738037D01*
X143334499Y-64821964D01*
X143323886Y-64702582D01*
X143267909Y-64506951D01*
X143173698Y-64326593D01*
X143084086Y-64216692D01*
X143045109Y-64168890D01*
X142887409Y-64040304D01*
X142887410Y-64040304D01*
X142887407Y-64040302D01*
X142707049Y-63946091D01*
X142707048Y-63946090D01*
X142707045Y-63946089D01*
X142589829Y-63912550D01*
X142511418Y-63890114D01*
X142511415Y-63890113D01*
X142511413Y-63890113D01*
X142445102Y-63884217D01*
X142392037Y-63879500D01*
X142392032Y-63879500D01*
X141275971Y-63879500D01*
X141275965Y-63879500D01*
X141275964Y-63879501D01*
X141264316Y-63880536D01*
X141156584Y-63890113D01*
X140960954Y-63946089D01*
X140887459Y-63984480D01*
X140780593Y-64040302D01*
X140780591Y-64040303D01*
X140780590Y-64040304D01*
X140622890Y-64168890D01*
X140509383Y-64308097D01*
X140494302Y-64326593D01*
X140467075Y-64378716D01*
X140400089Y-64506954D01*
X140368888Y-64616000D01*
X140349922Y-64682286D01*
X140344114Y-64702583D01*
X140344113Y-64702586D01*
X140333500Y-64821966D01*
X140333500Y-65555500D01*
X140313815Y-65622539D01*
X140261011Y-65668294D01*
X140209500Y-65679500D01*
X139440750Y-65679500D01*
X139373711Y-65659815D01*
X139327956Y-65607011D01*
X139318012Y-65537853D01*
X139337648Y-65486609D01*
X139393390Y-65403185D01*
X139393390Y-65403184D01*
X139393394Y-65403179D01*
X139453737Y-65257497D01*
X139484500Y-65102842D01*
X139484500Y-64945158D01*
X139484500Y-64945155D01*
X139484499Y-64945153D01*
X139471616Y-64880385D01*
X139453737Y-64790503D01*
X139442898Y-64764335D01*
X139393397Y-64644827D01*
X139393390Y-64644814D01*
X139305398Y-64513125D01*
X139284520Y-64446447D01*
X139284500Y-64444234D01*
X139284500Y-63928944D01*
X139284500Y-63928943D01*
X139243577Y-63776216D01*
X139223862Y-63742068D01*
X139164524Y-63639290D01*
X139164521Y-63639286D01*
X139164520Y-63639284D01*
X139052716Y-63527480D01*
X139052715Y-63527479D01*
X139048385Y-63523149D01*
X139048374Y-63523139D01*
X137796819Y-62271584D01*
X137763334Y-62210261D01*
X137760500Y-62183903D01*
X137760500Y-60752097D01*
X137780185Y-60685058D01*
X137796819Y-60664416D01*
X139120416Y-59340819D01*
X139181739Y-59307334D01*
X139208097Y-59304500D01*
X139620978Y-59304500D01*
X139688017Y-59324185D01*
X139733772Y-59376989D01*
X139743716Y-59446147D01*
X139735539Y-59475953D01*
X139705870Y-59547579D01*
X139705868Y-59547587D01*
X139665500Y-59750530D01*
X139665500Y-60657469D01*
X139705868Y-60860412D01*
X139705870Y-60860420D01*
X139785058Y-61051596D01*
X139900024Y-61223657D01*
X140046342Y-61369975D01*
X140046345Y-61369977D01*
X140218402Y-61484941D01*
X140409580Y-61564130D01*
X140582813Y-61598588D01*
X140612530Y-61604499D01*
X140612534Y-61604500D01*
X140612535Y-61604500D01*
X140819466Y-61604500D01*
X140819467Y-61604499D01*
X141022420Y-61564130D01*
X141213598Y-61484941D01*
X141385655Y-61369977D01*
X141531977Y-61223655D01*
X141646941Y-61051598D01*
X141726130Y-60860420D01*
X141766500Y-60657465D01*
X141766500Y-59750535D01*
X141730192Y-59568002D01*
X141736419Y-59498412D01*
X141779282Y-59443235D01*
X141816396Y-59426287D01*
X141816215Y-59425802D01*
X141823005Y-59423269D01*
X141823304Y-59423133D01*
X141823473Y-59423092D01*
X141823483Y-59423091D01*
X141958331Y-59372796D01*
X142073546Y-59286546D01*
X142159796Y-59171331D01*
X142210091Y-59036483D01*
X142214732Y-58993314D01*
X142241467Y-58928769D01*
X142298859Y-58888919D01*
X142368684Y-58886424D01*
X142385471Y-58892011D01*
X142559580Y-58964130D01*
X142762530Y-59004499D01*
X142762534Y-59004500D01*
X142762535Y-59004500D01*
X142969466Y-59004500D01*
X142969467Y-59004499D01*
X143172420Y-58964130D01*
X143363598Y-58884941D01*
X143535655Y-58769977D01*
X143681977Y-58623655D01*
X143796941Y-58451598D01*
X143876130Y-58260420D01*
X143916500Y-58057465D01*
X143916500Y-56750535D01*
X143876130Y-56547580D01*
X143796941Y-56356402D01*
X143681977Y-56184345D01*
X143681975Y-56184342D01*
X143535657Y-56038024D01*
X143439571Y-55973822D01*
X143363598Y-55923059D01*
X143348835Y-55916944D01*
X143172420Y-55843870D01*
X143172412Y-55843868D01*
X142969469Y-55803500D01*
X142969465Y-55803500D01*
X142762535Y-55803500D01*
X142762530Y-55803500D01*
X142559587Y-55843868D01*
X142559579Y-55843870D01*
X142384991Y-55916187D01*
X142315521Y-55923656D01*
X142253042Y-55892381D01*
X142217390Y-55832292D01*
X142214249Y-55814882D01*
X142209598Y-55771626D01*
X142209596Y-55771620D01*
X142159354Y-55636913D01*
X142159350Y-55636906D01*
X142073190Y-55521812D01*
X142073187Y-55521809D01*
X141958093Y-55435649D01*
X141958086Y-55435645D01*
X141823371Y-55385400D01*
X141823189Y-55385357D01*
X141823062Y-55385284D01*
X141816108Y-55382691D01*
X141816528Y-55381563D01*
X141762475Y-55350780D01*
X141730093Y-55288868D01*
X141730094Y-55240491D01*
X141750379Y-55138510D01*
X141766500Y-55057465D01*
X141766500Y-54150535D01*
X141726130Y-53947580D01*
X141646941Y-53756402D01*
X141531977Y-53584345D01*
X141531975Y-53584342D01*
X141385657Y-53438024D01*
X141291030Y-53374797D01*
X141213598Y-53323059D01*
X141212789Y-53322724D01*
X141022420Y-53243870D01*
X141022412Y-53243868D01*
X140819469Y-53203500D01*
X140819465Y-53203500D01*
X140612535Y-53203500D01*
X140612530Y-53203500D01*
X140409587Y-53243868D01*
X140409579Y-53243870D01*
X140218403Y-53323058D01*
X140046342Y-53438024D01*
X139900024Y-53584342D01*
X139785058Y-53756403D01*
X139705870Y-53947579D01*
X139705868Y-53947587D01*
X139665500Y-54150530D01*
X139665500Y-54853594D01*
X139645815Y-54920633D01*
X139593011Y-54966388D01*
X139523853Y-54976332D01*
X139460297Y-54947307D01*
X139438398Y-54922486D01*
X139406806Y-54875206D01*
X139397789Y-54861711D01*
X139397788Y-54861710D01*
X139397786Y-54861707D01*
X139286292Y-54750213D01*
X139286288Y-54750210D01*
X139155185Y-54662609D01*
X139155172Y-54662602D01*
X139009501Y-54602264D01*
X139009489Y-54602261D01*
X138854845Y-54571500D01*
X138854842Y-54571500D01*
X138697158Y-54571500D01*
X138697155Y-54571500D01*
X138542510Y-54602261D01*
X138542498Y-54602264D01*
X138396827Y-54662602D01*
X138396814Y-54662609D01*
X138265711Y-54750210D01*
X138265707Y-54750213D01*
X138154213Y-54861707D01*
X138154210Y-54861711D01*
X138066609Y-54992814D01*
X138066602Y-54992827D01*
X138006264Y-55138498D01*
X138006261Y-55138510D01*
X137975500Y-55293153D01*
X137975500Y-55450846D01*
X138006261Y-55605489D01*
X138008031Y-55611324D01*
X138005825Y-55611993D01*
X138006864Y-55621667D01*
X138013848Y-55640391D01*
X138010519Y-55655692D01*
X138012192Y-55671266D01*
X138003243Y-55689138D01*
X137998996Y-55708664D01*
X137982301Y-55730965D01*
X137980911Y-55733742D01*
X137977845Y-55736918D01*
X137943614Y-55771149D01*
X137882291Y-55804634D01*
X137812599Y-55799650D01*
X137756666Y-55757778D01*
X137736158Y-55715562D01*
X137731300Y-55697431D01*
X137717577Y-55646216D01*
X137694068Y-55605497D01*
X137638524Y-55509290D01*
X137638518Y-55509282D01*
X137270005Y-55140769D01*
X137254233Y-55111885D01*
X137237483Y-55083540D01*
X137237564Y-55081359D01*
X137236520Y-55079446D01*
X137238867Y-55046625D01*
X137240101Y-55013720D01*
X137241348Y-55011930D01*
X137241504Y-55009754D01*
X137261231Y-54983402D01*
X137280052Y-54956398D01*
X137282299Y-54955258D01*
X137283376Y-54953821D01*
X137310437Y-54938443D01*
X137317848Y-54935388D01*
X137391785Y-54915577D01*
X137449169Y-54882446D01*
X137528716Y-54836520D01*
X137640520Y-54724716D01*
X137640520Y-54724714D01*
X137650724Y-54714511D01*
X137650728Y-54714506D01*
X139042506Y-53322728D01*
X139042511Y-53322724D01*
X139052714Y-53312520D01*
X139052716Y-53312520D01*
X139164520Y-53200716D01*
X139243577Y-53063784D01*
X139284500Y-52911057D01*
X139284500Y-52485595D01*
X139304185Y-52418556D01*
X139320818Y-52397914D01*
X139325135Y-52393598D01*
X139406869Y-52255393D01*
X139451665Y-52101204D01*
X139454500Y-52065181D01*
X139454499Y-51566820D01*
X139451665Y-51530796D01*
X139406869Y-51376607D01*
X139325135Y-51238402D01*
X139321164Y-51231687D01*
X139322800Y-51230719D01*
X139300985Y-51175139D01*
X139300500Y-51164187D01*
X139300500Y-50839320D01*
X139320185Y-50772281D01*
X139350192Y-50740051D01*
X139357546Y-50734546D01*
X139443796Y-50619331D01*
X139494091Y-50484483D01*
X139500500Y-50424873D01*
X139500500Y-50424844D01*
X139900000Y-50424844D01*
X139906401Y-50484372D01*
X139906403Y-50484379D01*
X139956645Y-50619086D01*
X139956649Y-50619093D01*
X140042809Y-50734187D01*
X140042812Y-50734190D01*
X140157906Y-50820350D01*
X140157913Y-50820354D01*
X140292620Y-50870596D01*
X140292627Y-50870598D01*
X140352155Y-50876999D01*
X140352172Y-50877000D01*
X140450000Y-50877000D01*
X140950000Y-50877000D01*
X141047828Y-50877000D01*
X141047844Y-50876999D01*
X141107372Y-50870598D01*
X141107379Y-50870596D01*
X141242086Y-50820354D01*
X141242093Y-50820350D01*
X141357187Y-50734190D01*
X141357190Y-50734187D01*
X141443350Y-50619093D01*
X141443354Y-50619086D01*
X141493596Y-50484379D01*
X141493598Y-50484372D01*
X141499999Y-50424844D01*
X141500000Y-50424827D01*
X141500000Y-49752000D01*
X140950000Y-49752000D01*
X140950000Y-50877000D01*
X140450000Y-50877000D01*
X140450000Y-49752000D01*
X139900000Y-49752000D01*
X139900000Y-50424844D01*
X139500500Y-50424844D01*
X139500499Y-49251498D01*
X139520184Y-49184460D01*
X139572988Y-49138705D01*
X139624499Y-49127499D01*
X139776000Y-49127499D01*
X139843039Y-49147184D01*
X139888794Y-49199988D01*
X139900000Y-49251499D01*
X139900000Y-49252000D01*
X140450000Y-49252000D01*
X140950000Y-49252000D01*
X141500000Y-49252000D01*
X141500000Y-48579172D01*
X141499999Y-48579155D01*
X141493598Y-48519627D01*
X141493596Y-48519620D01*
X141443354Y-48384913D01*
X141443350Y-48384906D01*
X141357190Y-48269812D01*
X141357187Y-48269809D01*
X141242093Y-48183649D01*
X141242086Y-48183645D01*
X141107379Y-48133403D01*
X141107372Y-48133401D01*
X141047844Y-48127000D01*
X140950000Y-48127000D01*
X140950000Y-49252000D01*
X140450000Y-49252000D01*
X140450000Y-48875068D01*
X140457817Y-48831737D01*
X140494091Y-48734483D01*
X140500500Y-48674873D01*
X140500499Y-47748524D01*
X140500499Y-46829129D01*
X140500498Y-46829123D01*
X140494091Y-46769516D01*
X140443797Y-46634671D01*
X140443793Y-46634664D01*
X140357547Y-46519455D01*
X140357544Y-46519452D01*
X140242335Y-46433206D01*
X140242328Y-46433202D01*
X140127188Y-46390258D01*
X140071254Y-46348387D01*
X140046837Y-46282923D01*
X140051731Y-46260426D01*
X140061688Y-46214650D01*
X140082834Y-46186401D01*
X140180520Y-46088716D01*
X140180521Y-46088713D01*
X140566506Y-45702728D01*
X140566511Y-45702724D01*
X140576714Y-45692520D01*
X140576716Y-45692520D01*
X140688520Y-45580716D01*
X140767577Y-45443784D01*
X140808500Y-45291057D01*
X140808500Y-44116943D01*
X140767577Y-43964216D01*
X140759218Y-43949737D01*
X140688524Y-43827290D01*
X140688521Y-43827286D01*
X140688520Y-43827284D01*
X140576716Y-43715480D01*
X140576715Y-43715479D01*
X140572385Y-43711149D01*
X140572374Y-43711139D01*
X140187590Y-43326355D01*
X140187588Y-43326352D01*
X140068717Y-43207481D01*
X140068716Y-43207480D01*
X139968800Y-43149794D01*
X139968799Y-43149793D01*
X139931783Y-43128422D01*
X139875881Y-43113443D01*
X139779057Y-43087499D01*
X139620943Y-43087499D01*
X139613347Y-43087499D01*
X139613331Y-43087500D01*
X137588940Y-43087500D01*
X137548019Y-43098464D01*
X137548019Y-43098465D01*
X137510751Y-43108451D01*
X137436214Y-43128423D01*
X137436209Y-43128426D01*
X137299290Y-43207475D01*
X137299282Y-43207481D01*
X136679481Y-43827282D01*
X136679479Y-43827285D01*
X136665870Y-43850858D01*
X136643621Y-43889394D01*
X136600423Y-43964215D01*
X136559499Y-44116943D01*
X136559499Y-44116945D01*
X136559499Y-44285046D01*
X136559500Y-44285059D01*
X136559500Y-44403903D01*
X136539815Y-44470942D01*
X136523181Y-44491584D01*
X135621339Y-45393425D01*
X135560016Y-45426910D01*
X135557850Y-45427361D01*
X135402508Y-45458261D01*
X135402498Y-45458264D01*
X135256827Y-45518602D01*
X135256814Y-45518609D01*
X135125711Y-45606210D01*
X135125707Y-45606213D01*
X135014213Y-45717707D01*
X135014210Y-45717711D01*
X134926609Y-45848814D01*
X134926602Y-45848827D01*
X134866264Y-45994498D01*
X134866261Y-45994510D01*
X134835500Y-46149153D01*
X134835500Y-46306846D01*
X134866261Y-46461489D01*
X134866264Y-46461501D01*
X134880574Y-46496048D01*
X134884081Y-46528673D01*
X134888751Y-46561147D01*
X134887797Y-46563234D01*
X134888043Y-46565517D01*
X134873359Y-46594849D01*
X134859726Y-46624703D01*
X134857793Y-46625944D01*
X134856767Y-46627996D01*
X134828564Y-46644729D01*
X134800948Y-46662477D01*
X134797917Y-46662912D01*
X134796678Y-46663648D01*
X134766013Y-46667500D01*
X134610501Y-46667500D01*
X134543462Y-46647815D01*
X134497707Y-46595011D01*
X134486501Y-46543500D01*
X134486501Y-46391347D01*
X134486500Y-46391329D01*
X134486500Y-43072499D01*
X134506185Y-43005460D01*
X134558989Y-42959705D01*
X134610500Y-42948499D01*
X134808871Y-42948499D01*
X134808872Y-42948499D01*
X134868483Y-42942091D01*
X135003331Y-42891796D01*
X135118546Y-42805546D01*
X135204796Y-42690331D01*
X135255091Y-42555483D01*
X135261500Y-42495873D01*
X135261499Y-42072498D01*
X135281183Y-42005460D01*
X135333987Y-41959705D01*
X135385499Y-41948499D01*
X136558871Y-41948499D01*
X136558872Y-41948499D01*
X136618483Y-41942091D01*
X136753331Y-41891796D01*
X136868546Y-41805546D01*
X136954796Y-41690331D01*
X137005091Y-41555483D01*
X137011500Y-41495873D01*
X137011499Y-40800128D01*
X137005091Y-40740517D01*
X136977849Y-40667478D01*
X136954797Y-40605671D01*
X136954793Y-40605664D01*
X136868547Y-40490455D01*
X136868544Y-40490452D01*
X136753335Y-40404206D01*
X136753328Y-40404202D01*
X136618482Y-40353908D01*
X136618483Y-40353908D01*
X136558883Y-40347501D01*
X136558881Y-40347500D01*
X136558873Y-40347500D01*
X136558865Y-40347500D01*
X135385499Y-40347500D01*
X135376813Y-40344949D01*
X135367852Y-40346238D01*
X135343811Y-40335259D01*
X135318460Y-40327815D01*
X135312532Y-40320974D01*
X135304296Y-40317213D01*
X135290006Y-40294978D01*
X135272705Y-40275011D01*
X135270417Y-40264496D01*
X135266522Y-40258435D01*
X135261499Y-40223500D01*
X135261499Y-40072000D01*
X135281184Y-40004961D01*
X135333988Y-39959206D01*
X135385499Y-39948000D01*
X135386000Y-39948000D01*
X135886000Y-39948000D01*
X136558828Y-39948000D01*
X136558844Y-39947999D01*
X136618372Y-39941598D01*
X136618379Y-39941596D01*
X136753086Y-39891354D01*
X136753093Y-39891350D01*
X136868187Y-39805190D01*
X136868190Y-39805187D01*
X136954350Y-39690093D01*
X136954354Y-39690086D01*
X137004596Y-39555379D01*
X137004598Y-39555372D01*
X137010999Y-39495844D01*
X137011000Y-39495827D01*
X137011000Y-39398000D01*
X135886000Y-39398000D01*
X135886000Y-39948000D01*
X135386000Y-39948000D01*
X135386000Y-39398000D01*
X135009069Y-39398000D01*
X134965736Y-39390182D01*
X134868482Y-39353908D01*
X134868483Y-39353908D01*
X134808883Y-39347501D01*
X134808881Y-39347500D01*
X134808873Y-39347500D01*
X134808864Y-39347500D01*
X132963129Y-39347500D01*
X132963123Y-39347501D01*
X132903516Y-39353908D01*
X132768671Y-39404202D01*
X132768664Y-39404206D01*
X132653455Y-39490452D01*
X132653452Y-39490455D01*
X132567206Y-39605664D01*
X132567202Y-39605671D01*
X132516908Y-39740517D01*
X132510501Y-39800116D01*
X132510500Y-39800135D01*
X132510500Y-40047902D01*
X132490815Y-40114941D01*
X132474181Y-40135583D01*
X131763456Y-40846307D01*
X131702133Y-40879792D01*
X131632441Y-40874808D01*
X131582316Y-40840121D01*
X131574408Y-40831052D01*
X131544520Y-40779284D01*
X131432716Y-40667480D01*
X131432713Y-40667478D01*
X131043590Y-40278355D01*
X131043588Y-40278352D01*
X130924717Y-40159481D01*
X130924716Y-40159480D01*
X130829944Y-40104764D01*
X130829943Y-40104763D01*
X130787783Y-40080422D01*
X130731881Y-40065443D01*
X130635057Y-40039499D01*
X130476943Y-40039499D01*
X130469347Y-40039499D01*
X130469331Y-40039500D01*
X130369320Y-40039500D01*
X130302281Y-40019815D01*
X130270052Y-39989809D01*
X130264548Y-39982457D01*
X130264546Y-39982454D01*
X130233491Y-39959206D01*
X130149335Y-39896206D01*
X130149328Y-39896202D01*
X130014482Y-39845908D01*
X130014483Y-39845908D01*
X129954883Y-39839501D01*
X129954881Y-39839500D01*
X129954873Y-39839500D01*
X129954865Y-39839500D01*
X128781499Y-39839500D01*
X128772813Y-39836949D01*
X128763852Y-39838238D01*
X128739811Y-39827259D01*
X128714460Y-39819815D01*
X128708532Y-39812974D01*
X128700296Y-39809213D01*
X128686006Y-39786978D01*
X128668705Y-39767011D01*
X128666417Y-39756496D01*
X128662522Y-39750435D01*
X128657499Y-39715500D01*
X128657499Y-39564000D01*
X128677184Y-39496961D01*
X128729988Y-39451206D01*
X128781499Y-39440000D01*
X128782000Y-39440000D01*
X129282000Y-39440000D01*
X129954828Y-39440000D01*
X129954844Y-39439999D01*
X130014372Y-39433598D01*
X130014379Y-39433596D01*
X130149086Y-39383354D01*
X130149093Y-39383350D01*
X130264187Y-39297190D01*
X130264190Y-39297187D01*
X130350350Y-39182093D01*
X130350354Y-39182086D01*
X130400596Y-39047379D01*
X130400598Y-39047372D01*
X130406999Y-38987844D01*
X130407000Y-38987827D01*
X130407000Y-38890000D01*
X129282000Y-38890000D01*
X129282000Y-39440000D01*
X128782000Y-39440000D01*
X128782000Y-38890000D01*
X128405069Y-38890000D01*
X128361736Y-38882182D01*
X128264482Y-38845908D01*
X128264483Y-38845908D01*
X128204883Y-38839501D01*
X128204881Y-38839500D01*
X128204873Y-38839500D01*
X128204864Y-38839500D01*
X126359129Y-38839500D01*
X126359123Y-38839501D01*
X126299516Y-38845908D01*
X126164671Y-38896202D01*
X126164664Y-38896206D01*
X126049455Y-38982452D01*
X126049452Y-38982455D01*
X125963206Y-39097664D01*
X125963202Y-39097671D01*
X125912910Y-39232513D01*
X125912909Y-39232517D01*
X125906500Y-39292127D01*
X125906500Y-39292134D01*
X125906500Y-39292135D01*
X125906500Y-39987870D01*
X125906501Y-39987876D01*
X125912908Y-40047483D01*
X125915587Y-40054664D01*
X125916858Y-40072445D01*
X125923089Y-40089150D01*
X125919299Y-40106571D01*
X125920571Y-40124356D01*
X125912026Y-40140004D01*
X125908237Y-40157423D01*
X125887087Y-40185677D01*
X125737286Y-40335478D01*
X125737285Y-40335478D01*
X125737284Y-40335479D01*
X125625481Y-40447282D01*
X125625477Y-40447287D01*
X125586084Y-40515520D01*
X125586084Y-40515521D01*
X125546423Y-40584214D01*
X125546423Y-40584215D01*
X125505499Y-40736943D01*
X125505499Y-40736945D01*
X125505499Y-40905046D01*
X125505500Y-40905059D01*
X125505500Y-42154330D01*
X125505499Y-42154348D01*
X125505499Y-42320054D01*
X125505498Y-42320054D01*
X125505499Y-42320057D01*
X125546423Y-42472785D01*
X125565601Y-42506002D01*
X125575358Y-42522900D01*
X125575359Y-42522904D01*
X125575360Y-42522904D01*
X125625479Y-42609714D01*
X125625481Y-42609717D01*
X125744349Y-42728585D01*
X125744355Y-42728590D01*
X126052139Y-43036374D01*
X126052149Y-43036385D01*
X126056479Y-43040715D01*
X126056480Y-43040716D01*
X126168284Y-43152520D01*
X126255095Y-43202639D01*
X126255097Y-43202641D01*
X126293151Y-43224611D01*
X126305215Y-43231577D01*
X126457943Y-43272501D01*
X126457946Y-43272501D01*
X126623653Y-43272501D01*
X126623669Y-43272500D01*
X128586209Y-43272500D01*
X128606424Y-43278435D01*
X128627463Y-43279564D01*
X128639275Y-43288082D01*
X128653248Y-43292185D01*
X128667043Y-43308105D01*
X128684134Y-43320430D01*
X128689466Y-43333983D01*
X128699003Y-43344989D01*
X128702001Y-43365840D01*
X128709716Y-43385448D01*
X128708386Y-43410246D01*
X128708947Y-43414147D01*
X128707826Y-43420692D01*
X128681674Y-43552163D01*
X128649289Y-43614074D01*
X128647738Y-43615652D01*
X128197233Y-44066157D01*
X128195729Y-44064653D01*
X128148377Y-44099219D01*
X128078631Y-44103364D01*
X128018765Y-44070205D01*
X127782913Y-43834354D01*
X127782912Y-43834352D01*
X127664041Y-43715481D01*
X127664033Y-43715475D01*
X127568847Y-43660520D01*
X127568845Y-43660519D01*
X127527114Y-43636425D01*
X127527113Y-43636424D01*
X127514587Y-43633067D01*
X127374381Y-43595499D01*
X127216267Y-43595499D01*
X127208671Y-43595499D01*
X127208655Y-43595500D01*
X124113595Y-43595500D01*
X124046556Y-43575815D01*
X124025918Y-43559185D01*
X123971598Y-43504865D01*
X123919930Y-43474309D01*
X123833393Y-43423131D01*
X123833388Y-43423129D01*
X123679208Y-43378335D01*
X123679202Y-43378334D01*
X123643181Y-43375500D01*
X123244830Y-43375500D01*
X123244808Y-43375501D01*
X123208794Y-43378335D01*
X123054611Y-43423129D01*
X123054604Y-43423132D01*
X122997119Y-43457128D01*
X122929395Y-43474309D01*
X122870881Y-43457128D01*
X122813395Y-43423132D01*
X122813388Y-43423129D01*
X122659208Y-43378335D01*
X122659202Y-43378334D01*
X122623181Y-43375500D01*
X122224830Y-43375500D01*
X122224808Y-43375501D01*
X122188794Y-43378335D01*
X122034611Y-43423129D01*
X122034606Y-43423131D01*
X121896404Y-43504863D01*
X121896400Y-43504866D01*
X121878256Y-43523011D01*
X121842084Y-43559182D01*
X121780764Y-43592666D01*
X121754405Y-43595500D01*
X120454499Y-43595500D01*
X120387460Y-43575815D01*
X120341705Y-43523011D01*
X120330499Y-43471500D01*
X120330499Y-43298129D01*
X120330498Y-43298123D01*
X120330497Y-43298116D01*
X120324091Y-43238517D01*
X120312515Y-43207481D01*
X120273797Y-43103671D01*
X120273793Y-43103664D01*
X120187547Y-42988455D01*
X120187544Y-42988452D01*
X120072335Y-42902206D01*
X120072328Y-42902202D01*
X119937482Y-42851908D01*
X119937483Y-42851908D01*
X119877883Y-42845501D01*
X119877881Y-42845500D01*
X119877873Y-42845500D01*
X119877864Y-42845500D01*
X118882129Y-42845500D01*
X118882123Y-42845501D01*
X118822516Y-42851908D01*
X118687671Y-42902202D01*
X118687664Y-42902206D01*
X118572455Y-42988452D01*
X118572452Y-42988455D01*
X118486206Y-43103664D01*
X118486202Y-43103671D01*
X118435908Y-43238517D01*
X118430580Y-43288082D01*
X118429501Y-43298123D01*
X118429500Y-43298135D01*
X118429500Y-43738064D01*
X118409815Y-43805103D01*
X118357011Y-43850858D01*
X118287853Y-43860802D01*
X118224297Y-43831777D01*
X118202398Y-43806955D01*
X118185276Y-43781331D01*
X118185273Y-43781327D01*
X118094672Y-43690726D01*
X118094668Y-43690723D01*
X117988133Y-43619538D01*
X117988124Y-43619533D01*
X117869744Y-43570499D01*
X117869738Y-43570497D01*
X117744071Y-43545500D01*
X117744069Y-43545500D01*
X117615931Y-43545500D01*
X117615929Y-43545500D01*
X117490261Y-43570497D01*
X117490255Y-43570499D01*
X117371875Y-43619533D01*
X117371866Y-43619538D01*
X117265331Y-43690723D01*
X117265327Y-43690726D01*
X117174726Y-43781327D01*
X117157102Y-43807704D01*
X117103489Y-43852508D01*
X117034164Y-43861215D01*
X116971137Y-43831060D01*
X116934418Y-43771616D01*
X116930000Y-43738812D01*
X116930000Y-43298172D01*
X116929999Y-43298155D01*
X116923598Y-43238627D01*
X116923596Y-43238620D01*
X116873354Y-43103913D01*
X116873350Y-43103906D01*
X116787190Y-42988812D01*
X116787187Y-42988809D01*
X116672093Y-42902649D01*
X116672086Y-42902645D01*
X116537379Y-42852403D01*
X116537372Y-42852401D01*
X116477844Y-42846000D01*
X116230000Y-42846000D01*
X116230000Y-45546000D01*
X116373401Y-45546000D01*
X116440440Y-45565685D01*
X116486195Y-45618489D01*
X116496139Y-45687647D01*
X116467114Y-45751203D01*
X116461082Y-45757681D01*
X114439286Y-47779478D01*
X114327481Y-47891282D01*
X114327479Y-47891285D01*
X114277361Y-47978094D01*
X114277359Y-47978096D01*
X114248425Y-48028209D01*
X114248424Y-48028210D01*
X114238394Y-48065643D01*
X114207499Y-48180943D01*
X114207499Y-48339057D01*
X114207499Y-48339059D01*
X114207500Y-48349053D01*
X114207500Y-53253330D01*
X114207499Y-53253348D01*
X114207499Y-53419054D01*
X114207498Y-53419054D01*
X108704500Y-53419054D01*
X108704500Y-45093844D01*
X115030000Y-45093844D01*
X115036401Y-45153372D01*
X115036403Y-45153379D01*
X115086645Y-45288086D01*
X115086649Y-45288093D01*
X115172809Y-45403187D01*
X115172812Y-45403190D01*
X115287906Y-45489350D01*
X115287913Y-45489354D01*
X115422620Y-45539596D01*
X115422627Y-45539598D01*
X115482155Y-45545999D01*
X115482172Y-45546000D01*
X115730000Y-45546000D01*
X115730000Y-44446000D01*
X115030000Y-44446000D01*
X115030000Y-45093844D01*
X108704500Y-45093844D01*
X108704500Y-43298155D01*
X115030000Y-43298155D01*
X115030000Y-43946000D01*
X115730000Y-43946000D01*
X115730000Y-42846000D01*
X115482155Y-42846000D01*
X115422627Y-42852401D01*
X115422620Y-42852403D01*
X115287913Y-42902645D01*
X115287906Y-42902649D01*
X115172812Y-42988809D01*
X115172809Y-42988812D01*
X115086649Y-43103906D01*
X115086645Y-43103913D01*
X115036403Y-43238620D01*
X115036401Y-43238627D01*
X115030000Y-43298155D01*
X108704500Y-43298155D01*
X108704500Y-38800155D01*
X134261000Y-38800155D01*
X134261000Y-38898000D01*
X135386000Y-38898000D01*
X135886000Y-38898000D01*
X137011000Y-38898000D01*
X137011000Y-38800172D01*
X137010999Y-38800155D01*
X137004598Y-38740627D01*
X137004596Y-38740620D01*
X136954354Y-38605913D01*
X136954350Y-38605906D01*
X136868190Y-38490812D01*
X136868187Y-38490809D01*
X136753093Y-38404649D01*
X136753086Y-38404645D01*
X136618379Y-38354403D01*
X136618372Y-38354401D01*
X136558844Y-38348000D01*
X135886000Y-38348000D01*
X135886000Y-38898000D01*
X135386000Y-38898000D01*
X135386000Y-38348000D01*
X134713155Y-38348000D01*
X134653627Y-38354401D01*
X134653620Y-38354403D01*
X134518913Y-38404645D01*
X134518906Y-38404649D01*
X134403812Y-38490809D01*
X134403809Y-38490812D01*
X134317649Y-38605906D01*
X134317645Y-38605913D01*
X134267403Y-38740620D01*
X134267401Y-38740627D01*
X134261000Y-38800155D01*
X108704500Y-38800155D01*
X108704500Y-38292155D01*
X127657000Y-38292155D01*
X127657000Y-38390000D01*
X128782000Y-38390000D01*
X129282000Y-38390000D01*
X130407000Y-38390000D01*
X130407000Y-38292172D01*
X130406999Y-38292155D01*
X130400598Y-38232627D01*
X130400596Y-38232620D01*
X130350354Y-38097913D01*
X130350350Y-38097906D01*
X130264190Y-37982812D01*
X130264187Y-37982809D01*
X130149093Y-37896649D01*
X130149086Y-37896645D01*
X130014379Y-37846403D01*
X130014372Y-37846401D01*
X129954844Y-37840000D01*
X129282000Y-37840000D01*
X129282000Y-38390000D01*
X128782000Y-38390000D01*
X128782000Y-37840000D01*
X128109155Y-37840000D01*
X128049627Y-37846401D01*
X128049620Y-37846403D01*
X127914913Y-37896645D01*
X127914906Y-37896649D01*
X127799812Y-37982809D01*
X127799809Y-37982812D01*
X127713649Y-38097906D01*
X127713645Y-38097913D01*
X127663403Y-38232620D01*
X127663401Y-38232627D01*
X127657000Y-38292155D01*
X108704500Y-38292155D01*
X108704500Y-34152500D01*
X108724185Y-34085461D01*
X108776989Y-34039706D01*
X108828500Y-34028500D01*
X152747819Y-34028500D01*
X152749212Y-34028508D01*
G37*
%TD.AperFunction*%
%TD*%
M02*
