%TF.GenerationSoftware,KiCad,Pcbnew,9.0.7*%
%TF.CreationDate,2026-04-28T14:54:49-06:00*%
%TF.ProjectId,Phil_lab_65_Avila,5068696c-5f6c-4616-925f-36355f417669,rev?*%
%TF.SameCoordinates,Original*%
%TF.FileFunction,Paste,Top*%
%TF.FilePolarity,Positive*%
%FSLAX46Y46*%
G04 Gerber Fmt 4.6, Leading zero omitted, Abs format (unit mm)*
G04 Created by KiCad (PCBNEW 9.0.7) date 2026-04-28 14:54:49*
%MOMM*%
%LPD*%
G01*
G04 APERTURE LIST*
G04 Aperture macros list*
%AMRoundRect*
0 Rectangle with rounded corners*
0 $1 Rounding radius*
0 $2 $3 $4 $5 $6 $7 $8 $9 X,Y pos of 4 corners*
0 Add a 4 corners polygon primitive as box body*
4,1,4,$2,$3,$4,$5,$6,$7,$8,$9,$2,$3,0*
0 Add four circle primitives for the rounded corners*
1,1,$1+$1,$2,$3*
1,1,$1+$1,$4,$5*
1,1,$1+$1,$6,$7*
1,1,$1+$1,$8,$9*
0 Add four rect primitives between the rounded corners*
20,1,$1+$1,$2,$3,$4,$5,0*
20,1,$1+$1,$4,$5,$6,$7,0*
20,1,$1+$1,$6,$7,$8,$9,0*
20,1,$1+$1,$8,$9,$2,$3,0*%
G04 Aperture macros list end*
%ADD10RoundRect,0.075000X-0.075000X-0.662500X0.075000X-0.662500X0.075000X0.662500X-0.075000X0.662500X0*%
%ADD11RoundRect,0.075000X-0.662500X-0.075000X0.662500X-0.075000X0.662500X0.075000X-0.662500X0.075000X0*%
%ADD12R,0.600000X1.750000*%
%ADD13R,1.750000X0.600000*%
%ADD14R,0.800000X1.100000*%
%ADD15R,0.900000X1.700000*%
%ADD16RoundRect,0.135000X-0.135000X-0.185000X0.135000X-0.185000X0.135000X0.185000X-0.135000X0.185000X0*%
%ADD17RoundRect,0.250000X0.450000X0.350000X-0.450000X0.350000X-0.450000X-0.350000X0.450000X-0.350000X0*%
%ADD18RoundRect,0.375000X-0.625000X-0.375000X0.625000X-0.375000X0.625000X0.375000X-0.625000X0.375000X0*%
%ADD19RoundRect,0.500000X-0.500000X-1.400000X0.500000X-1.400000X0.500000X1.400000X-0.500000X1.400000X0*%
%ADD20RoundRect,0.135000X0.185000X-0.135000X0.185000X0.135000X-0.185000X0.135000X-0.185000X-0.135000X0*%
%ADD21RoundRect,0.135000X-0.185000X0.135000X-0.185000X-0.135000X0.185000X-0.135000X0.185000X0.135000X0*%
%ADD22R,1.500000X0.450000*%
%ADD23RoundRect,0.218750X-0.256250X0.218750X-0.256250X-0.218750X0.256250X-0.218750X0.256250X0.218750X0*%
%ADD24RoundRect,0.225000X0.250000X-0.225000X0.250000X0.225000X-0.250000X0.225000X-0.250000X-0.225000X0*%
%ADD25RoundRect,0.140000X0.170000X-0.140000X0.170000X0.140000X-0.170000X0.140000X-0.170000X-0.140000X0*%
%ADD26RoundRect,0.140000X-0.170000X0.140000X-0.170000X-0.140000X0.170000X-0.140000X0.170000X0.140000X0*%
%ADD27RoundRect,0.225000X-0.250000X0.225000X-0.250000X-0.225000X0.250000X-0.225000X0.250000X0.225000X0*%
%ADD28RoundRect,0.225000X-0.225000X-0.250000X0.225000X-0.250000X0.225000X0.250000X-0.225000X0.250000X0*%
%ADD29RoundRect,0.140000X-0.140000X-0.170000X0.140000X-0.170000X0.140000X0.170000X-0.140000X0.170000X0*%
G04 APERTURE END LIST*
D10*
%TO.C,U1*%
X126183500Y-45855500D03*
X126683500Y-45855500D03*
X127183500Y-45855500D03*
X127683500Y-45855500D03*
X128183500Y-45855500D03*
X128683500Y-45855500D03*
X129183500Y-45855500D03*
X129683500Y-45855500D03*
X130183500Y-45855500D03*
X130683500Y-45855500D03*
X131183500Y-45855500D03*
X131683500Y-45855500D03*
D11*
X133096000Y-47268000D03*
X133096000Y-47768000D03*
X133096000Y-48268000D03*
X133096000Y-48768000D03*
X133096000Y-49268000D03*
X133096000Y-49768000D03*
X133096000Y-50268000D03*
X133096000Y-50768000D03*
X133096000Y-51268000D03*
X133096000Y-51768000D03*
X133096000Y-52268000D03*
X133096000Y-52768000D03*
D10*
X131683500Y-54180500D03*
X131183500Y-54180500D03*
X130683500Y-54180500D03*
X130183500Y-54180500D03*
X129683500Y-54180500D03*
X129183500Y-54180500D03*
X128683500Y-54180500D03*
X128183500Y-54180500D03*
X127683500Y-54180500D03*
X127183500Y-54180500D03*
X126683500Y-54180500D03*
X126183500Y-54180500D03*
D11*
X124771000Y-52768000D03*
X124771000Y-52268000D03*
X124771000Y-51768000D03*
X124771000Y-51268000D03*
X124771000Y-50768000D03*
X124771000Y-50268000D03*
X124771000Y-49768000D03*
X124771000Y-49268000D03*
X124771000Y-48768000D03*
X124771000Y-48268000D03*
X124771000Y-47768000D03*
X124771000Y-47268000D03*
%TD*%
D12*
%TO.C,J4*%
X140700000Y-49502000D03*
X139700000Y-47752000D03*
X138700000Y-49502000D03*
X137700000Y-47752000D03*
%TD*%
D13*
%TO.C,J2*%
X129032000Y-38640000D03*
X127282000Y-39640000D03*
X129032000Y-40640000D03*
X127282000Y-41640000D03*
%TD*%
%TO.C,J3*%
X135636000Y-39148000D03*
X133886000Y-40148000D03*
X135636000Y-41148000D03*
X133886000Y-42148000D03*
%TD*%
D14*
%TO.C,SW1*%
X117680000Y-45836000D03*
D15*
X119380000Y-44196000D03*
X115980000Y-44196000D03*
%TD*%
D16*
%TO.C,R1*%
X123444000Y-44196000D03*
X122424000Y-44196000D03*
%TD*%
D17*
%TO.C,Y1*%
X118364000Y-49100000D03*
X116164000Y-49100000D03*
X116164000Y-50800000D03*
X118364000Y-50800000D03*
%TD*%
D18*
%TO.C,U2*%
X135534000Y-63980000D03*
X135534000Y-66280000D03*
D19*
X141834000Y-66280000D03*
D18*
X135534000Y-68580000D03*
%TD*%
D16*
%TO.C,R5*%
X138174000Y-45720000D03*
X139194000Y-45720000D03*
%TD*%
%TO.C,R4*%
X137664000Y-51816000D03*
X138684000Y-51816000D03*
%TD*%
D20*
%TO.C,R3*%
X132994000Y-65532000D03*
X132994000Y-64512000D03*
%TD*%
D21*
%TO.C,R2*%
X137158000Y-56386000D03*
X137158000Y-57406000D03*
%TD*%
D22*
%TO.C,J1*%
X140966000Y-58704000D03*
X140966000Y-58054000D03*
X140966000Y-57404000D03*
X140966000Y-56754000D03*
X140966000Y-56104000D03*
%TD*%
D23*
%TO.C,FB1*%
X132588000Y-56845000D03*
X132588000Y-58420000D03*
%TD*%
%TO.C,D1*%
X130962000Y-64465000D03*
X130962000Y-66040000D03*
%TD*%
D24*
%TO.C,C13*%
X128422000Y-66040000D03*
X128422000Y-64490000D03*
%TD*%
%TO.C,C12*%
X125882000Y-66066000D03*
X125882000Y-64516000D03*
%TD*%
D25*
%TO.C,C11*%
X120396000Y-51788000D03*
X120396000Y-50828000D03*
%TD*%
D26*
%TO.C,C10*%
X120396000Y-48796000D03*
X120396000Y-49756000D03*
%TD*%
%TO.C,C9*%
X124460000Y-55936000D03*
X124460000Y-56896000D03*
%TD*%
%TO.C,C8*%
X134620000Y-56924000D03*
X134620000Y-57884000D03*
%TD*%
%TO.C,C7*%
X130048000Y-57460000D03*
X130048000Y-58420000D03*
%TD*%
D27*
%TO.C,C6*%
X127508000Y-57137000D03*
X127508000Y-58687000D03*
%TD*%
D28*
%TO.C,C5*%
X121414000Y-62992000D03*
X122964000Y-62992000D03*
%TD*%
D29*
%TO.C,C4*%
X121440000Y-60960000D03*
X122400000Y-60960000D03*
%TD*%
%TO.C,C3*%
X121496000Y-58928000D03*
X122456000Y-58928000D03*
%TD*%
%TO.C,C2*%
X121468000Y-56896000D03*
X122428000Y-56896000D03*
%TD*%
%TO.C,C1*%
X121468000Y-54864000D03*
X122428000Y-54864000D03*
%TD*%
M02*
