%TF.GenerationSoftware,KiCad,Pcbnew,9.0.7*%
%TF.CreationDate,2026-04-28T14:54:49-06:00*%
%TF.ProjectId,Phil_lab_65_Avila,5068696c-5f6c-4616-925f-36355f417669,rev?*%
%TF.SameCoordinates,Original*%
%TF.FileFunction,Copper,L2,Bot*%
%TF.FilePolarity,Positive*%
%FSLAX46Y46*%
G04 Gerber Fmt 4.6, Leading zero omitted, Abs format (unit mm)*
G04 Created by KiCad (PCBNEW 9.0.7) date 2026-04-28 14:54:49*
%MOMM*%
%LPD*%
G01*
G04 APERTURE LIST*
%TA.AperFunction,HeatsinkPad*%
%ADD10O,1.100000X1.800000*%
%TD*%
%TA.AperFunction,HeatsinkPad*%
%ADD11O,1.100000X2.200000*%
%TD*%
%TA.AperFunction,ViaPad*%
%ADD12C,0.600000*%
%TD*%
%TA.AperFunction,Conductor*%
%ADD13C,0.200000*%
%TD*%
G04 APERTURE END LIST*
D10*
%TO.P,J1,6,Shield*%
%TO.N,unconnected-(J1-Shield-Pad6)_1*%
X140716000Y-60204000D03*
D11*
%TO.N,unconnected-(J1-Shield-Pad6)_2*%
X142866000Y-57404000D03*
D10*
%TO.N,unconnected-(J1-Shield-Pad6)*%
X140716000Y-54604000D03*
%TD*%
D12*
%TO.N,GND*%
X130048000Y-51308000D03*
X131860840Y-51898700D03*
%TO.N,/I2C2_SDA*%
X135636000Y-46228000D03*
X131064000Y-47752000D03*
%TO.N,/USB_D+*%
X138776000Y-55372000D03*
X136236000Y-51816000D03*
%TO.N,/I2C2_SCL*%
X136652000Y-54356000D03*
X133521485Y-54946515D03*
%TO.N,/USART1_RX*%
X129482313Y-43630313D03*
X131977444Y-42663062D03*
%TO.N,/USART1_TX*%
X130048000Y-44196000D03*
X132588000Y-43180000D03*
%TO.N,+3.3V*%
X124968000Y-45212000D03*
X127065265Y-40705265D03*
%TO.N,/USB_D-*%
X135128000Y-49784000D03*
X139700000Y-58004000D03*
%TO.N,VBUS*%
X138684000Y-65024000D03*
X138684000Y-67564000D03*
%TD*%
D13*
%TO.N,GND*%
X131860840Y-51596840D02*
X131860840Y-51898700D01*
X131572000Y-51308000D02*
X131860840Y-51596840D01*
X130048000Y-51308000D02*
X131572000Y-51308000D01*
%TO.N,/I2C2_SDA*%
X132588000Y-46228000D02*
X135636000Y-46228000D01*
X131064000Y-47752000D02*
X132588000Y-46228000D01*
%TO.N,/USB_D+*%
X138776000Y-54356000D02*
X138776000Y-55372000D01*
X136236000Y-51816000D02*
X138776000Y-54356000D01*
%TO.N,/I2C2_SCL*%
X134112000Y-54356000D02*
X136652000Y-54356000D01*
X133521485Y-54946515D02*
X134112000Y-54356000D01*
%TO.N,/USART1_RX*%
X129517626Y-43595000D02*
X129482313Y-43630313D01*
X131605900Y-43595000D02*
X130048000Y-43595000D01*
X130048000Y-43595000D02*
X129517626Y-43595000D01*
X131977444Y-43223456D02*
X131605900Y-43595000D01*
X131977444Y-42663062D02*
X131977444Y-43223456D01*
%TO.N,/USART1_TX*%
X131572000Y-44196000D02*
X130048000Y-44196000D01*
X132588000Y-43180000D02*
X131572000Y-44196000D01*
%TO.N,+3.3V*%
X124460000Y-44704000D02*
X124968000Y-45212000D01*
X124968000Y-40132000D02*
X124460000Y-40640000D01*
X127065265Y-40705265D02*
X126492000Y-40132000D01*
X124460000Y-40640000D02*
X124460000Y-43180000D01*
X124460000Y-43180000D02*
X124460000Y-44704000D01*
X126492000Y-40132000D02*
X124968000Y-40132000D01*
%TO.N,/USB_D-*%
X135636000Y-51816000D02*
X135636000Y-50292000D01*
X138176000Y-54864000D02*
X135636000Y-52324000D01*
X135636000Y-52324000D02*
X135636000Y-51816000D01*
X138176000Y-56896000D02*
X138176000Y-54864000D01*
X135636000Y-50292000D02*
X135128000Y-49784000D01*
X139700000Y-58004000D02*
X139284000Y-58004000D01*
X139284000Y-58004000D02*
X138176000Y-56896000D01*
%TO.N,VBUS*%
X138684000Y-67564000D02*
X138684000Y-65024000D01*
%TD*%
%TA.AperFunction,Conductor*%
%TO.N,GND*%
G36*
X152749212Y-34028508D02*
G01*
X153287113Y-34034551D01*
X153353925Y-34054987D01*
X153399084Y-34108302D01*
X153409563Y-34164735D01*
X151389960Y-74556780D01*
X151366952Y-74622753D01*
X151311930Y-74665814D01*
X151264639Y-74674579D01*
X108833001Y-74169440D01*
X108766201Y-74148959D01*
X108721077Y-74095614D01*
X108710487Y-74046999D01*
X108704510Y-73568800D01*
X108704500Y-73567250D01*
X108704500Y-64945153D01*
X137883500Y-64945153D01*
X137883500Y-65102846D01*
X137914261Y-65257489D01*
X137914264Y-65257501D01*
X137974602Y-65403172D01*
X137974609Y-65403185D01*
X138062602Y-65534874D01*
X138083480Y-65601551D01*
X138083500Y-65603765D01*
X138083500Y-66984234D01*
X138063815Y-67051273D01*
X138062602Y-67053125D01*
X137974609Y-67184814D01*
X137974602Y-67184827D01*
X137914264Y-67330498D01*
X137914261Y-67330510D01*
X137883500Y-67485153D01*
X137883500Y-67642846D01*
X137914261Y-67797489D01*
X137914264Y-67797501D01*
X137974602Y-67943172D01*
X137974609Y-67943185D01*
X138062210Y-68074288D01*
X138062213Y-68074292D01*
X138173707Y-68185786D01*
X138173711Y-68185789D01*
X138304814Y-68273390D01*
X138304827Y-68273397D01*
X138450498Y-68333735D01*
X138450503Y-68333737D01*
X138605153Y-68364499D01*
X138605156Y-68364500D01*
X138605158Y-68364500D01*
X138762844Y-68364500D01*
X138762845Y-68364499D01*
X138917497Y-68333737D01*
X139063179Y-68273394D01*
X139194289Y-68185789D01*
X139305789Y-68074289D01*
X139393394Y-67943179D01*
X139453737Y-67797497D01*
X139484500Y-67642842D01*
X139484500Y-67485158D01*
X139484500Y-67485155D01*
X139484499Y-67485153D01*
X139453738Y-67330510D01*
X139453737Y-67330503D01*
X139453735Y-67330498D01*
X139393397Y-67184827D01*
X139393390Y-67184814D01*
X139305398Y-67053125D01*
X139284520Y-66986447D01*
X139284500Y-66984234D01*
X139284500Y-65603765D01*
X139304185Y-65536726D01*
X139305398Y-65534874D01*
X139393390Y-65403185D01*
X139393390Y-65403184D01*
X139393394Y-65403179D01*
X139453737Y-65257497D01*
X139484500Y-65102842D01*
X139484500Y-64945158D01*
X139484500Y-64945155D01*
X139484499Y-64945153D01*
X139453738Y-64790510D01*
X139453737Y-64790503D01*
X139453735Y-64790498D01*
X139393397Y-64644827D01*
X139393390Y-64644814D01*
X139305789Y-64513711D01*
X139305786Y-64513707D01*
X139194292Y-64402213D01*
X139194288Y-64402210D01*
X139063185Y-64314609D01*
X139063172Y-64314602D01*
X138917501Y-64254264D01*
X138917489Y-64254261D01*
X138762845Y-64223500D01*
X138762842Y-64223500D01*
X138605158Y-64223500D01*
X138605155Y-64223500D01*
X138450510Y-64254261D01*
X138450498Y-64254264D01*
X138304827Y-64314602D01*
X138304814Y-64314609D01*
X138173711Y-64402210D01*
X138173707Y-64402213D01*
X138062213Y-64513707D01*
X138062210Y-64513711D01*
X137974609Y-64644814D01*
X137974602Y-64644827D01*
X137914264Y-64790498D01*
X137914261Y-64790510D01*
X137883500Y-64945153D01*
X108704500Y-64945153D01*
X108704500Y-59750530D01*
X139665500Y-59750530D01*
X139665500Y-60657469D01*
X139705868Y-60860412D01*
X139705870Y-60860420D01*
X139785058Y-61051596D01*
X139900024Y-61223657D01*
X140046342Y-61369975D01*
X140046345Y-61369977D01*
X140218402Y-61484941D01*
X140409580Y-61564130D01*
X140612530Y-61604499D01*
X140612534Y-61604500D01*
X140612535Y-61604500D01*
X140819466Y-61604500D01*
X140819467Y-61604499D01*
X141022420Y-61564130D01*
X141213598Y-61484941D01*
X141385655Y-61369977D01*
X141531977Y-61223655D01*
X141646941Y-61051598D01*
X141726130Y-60860420D01*
X141766500Y-60657465D01*
X141766500Y-59750535D01*
X141726130Y-59547580D01*
X141646941Y-59356402D01*
X141531977Y-59184345D01*
X141531975Y-59184342D01*
X141385657Y-59038024D01*
X141275067Y-58964131D01*
X141213598Y-58923059D01*
X141022420Y-58843870D01*
X141022412Y-58843868D01*
X140819469Y-58803500D01*
X140819465Y-58803500D01*
X140612535Y-58803500D01*
X140612530Y-58803500D01*
X140409587Y-58843868D01*
X140409579Y-58843870D01*
X140218403Y-58923058D01*
X140046342Y-59038024D01*
X139900024Y-59184342D01*
X139785058Y-59356403D01*
X139705870Y-59547579D01*
X139705868Y-59547587D01*
X139665500Y-59750530D01*
X108704500Y-59750530D01*
X108704500Y-54867668D01*
X132720985Y-54867668D01*
X132720985Y-55025361D01*
X132751746Y-55180004D01*
X132751749Y-55180016D01*
X132812087Y-55325687D01*
X132812094Y-55325700D01*
X132899695Y-55456803D01*
X132899698Y-55456807D01*
X133011192Y-55568301D01*
X133011196Y-55568304D01*
X133142299Y-55655905D01*
X133142312Y-55655912D01*
X133287983Y-55716250D01*
X133287988Y-55716252D01*
X133442638Y-55747014D01*
X133442641Y-55747015D01*
X133442643Y-55747015D01*
X133600329Y-55747015D01*
X133600330Y-55747014D01*
X133754982Y-55716252D01*
X133900664Y-55655909D01*
X134031774Y-55568304D01*
X134143274Y-55456804D01*
X134230879Y-55325694D01*
X134291222Y-55180012D01*
X134302018Y-55125737D01*
X134315829Y-55056308D01*
X134348214Y-54994397D01*
X134408930Y-54959823D01*
X134437446Y-54956500D01*
X136072234Y-54956500D01*
X136139273Y-54976185D01*
X136141125Y-54977398D01*
X136272814Y-55065390D01*
X136272827Y-55065397D01*
X136387113Y-55112735D01*
X136418503Y-55125737D01*
X136573153Y-55156499D01*
X136573156Y-55156500D01*
X136573158Y-55156500D01*
X136730844Y-55156500D01*
X136730845Y-55156499D01*
X136885497Y-55125737D01*
X137031179Y-55065394D01*
X137162289Y-54977789D01*
X137183578Y-54956500D01*
X137213741Y-54926338D01*
X137221686Y-54921999D01*
X137227112Y-54914752D01*
X137251871Y-54905517D01*
X137275064Y-54892853D01*
X137284093Y-54893498D01*
X137292576Y-54890335D01*
X137318396Y-54895951D01*
X137344756Y-54897837D01*
X137353809Y-54903655D01*
X137360849Y-54905187D01*
X137389103Y-54926338D01*
X137539181Y-55076416D01*
X137572666Y-55137739D01*
X137575500Y-55164097D01*
X137575500Y-56809330D01*
X137575499Y-56809348D01*
X137575499Y-56975054D01*
X137575498Y-56975054D01*
X137616423Y-57127785D01*
X137645358Y-57177900D01*
X137645359Y-57177904D01*
X137645360Y-57177904D01*
X137678918Y-57236030D01*
X137695479Y-57264714D01*
X137695481Y-57264717D01*
X137814349Y-57383585D01*
X137814354Y-57383589D01*
X138915284Y-58484520D01*
X138915286Y-58484521D01*
X138915290Y-58484524D01*
X139052209Y-58563573D01*
X139052216Y-58563577D01*
X139122962Y-58582533D01*
X139178548Y-58614627D01*
X139189707Y-58625786D01*
X139189711Y-58625789D01*
X139320814Y-58713390D01*
X139320827Y-58713397D01*
X139457425Y-58769977D01*
X139466503Y-58773737D01*
X139616131Y-58803500D01*
X139621153Y-58804499D01*
X139621156Y-58804500D01*
X139621158Y-58804500D01*
X139778844Y-58804500D01*
X139778845Y-58804499D01*
X139933497Y-58773737D01*
X140079179Y-58713394D01*
X140210289Y-58625789D01*
X140321789Y-58514289D01*
X140409394Y-58383179D01*
X140469737Y-58237497D01*
X140500500Y-58082842D01*
X140500500Y-57925158D01*
X140500500Y-57925155D01*
X140500499Y-57925153D01*
X140469738Y-57770510D01*
X140469737Y-57770503D01*
X140469735Y-57770498D01*
X140409397Y-57624827D01*
X140409390Y-57624814D01*
X140321789Y-57493711D01*
X140321786Y-57493707D01*
X140210292Y-57382213D01*
X140210288Y-57382210D01*
X140079185Y-57294609D01*
X140079172Y-57294602D01*
X139933501Y-57234264D01*
X139933489Y-57234261D01*
X139778845Y-57203500D01*
X139778842Y-57203500D01*
X139621158Y-57203500D01*
X139621155Y-57203500D01*
X139466511Y-57234260D01*
X139460680Y-57236030D01*
X139460013Y-57233833D01*
X139400688Y-57240184D01*
X139338224Y-57208879D01*
X139335081Y-57205845D01*
X138879766Y-56750530D01*
X141815500Y-56750530D01*
X141815500Y-58057469D01*
X141851310Y-58237497D01*
X141855870Y-58260420D01*
X141935059Y-58451598D01*
X141992541Y-58537626D01*
X142050024Y-58623657D01*
X142196342Y-58769975D01*
X142196345Y-58769977D01*
X142368402Y-58884941D01*
X142559580Y-58964130D01*
X142762530Y-59004499D01*
X142762534Y-59004500D01*
X142762535Y-59004500D01*
X142969466Y-59004500D01*
X142969467Y-59004499D01*
X143172420Y-58964130D01*
X143363598Y-58884941D01*
X143535655Y-58769977D01*
X143681977Y-58623655D01*
X143796941Y-58451598D01*
X143876130Y-58260420D01*
X143916500Y-58057465D01*
X143916500Y-56750535D01*
X143876130Y-56547580D01*
X143796941Y-56356402D01*
X143681977Y-56184345D01*
X143681975Y-56184342D01*
X143535657Y-56038024D01*
X143425067Y-55964131D01*
X143363598Y-55923059D01*
X143265178Y-55882292D01*
X143172420Y-55843870D01*
X143172412Y-55843868D01*
X142969469Y-55803500D01*
X142969465Y-55803500D01*
X142762535Y-55803500D01*
X142762530Y-55803500D01*
X142559587Y-55843868D01*
X142559579Y-55843870D01*
X142368403Y-55923058D01*
X142196342Y-56038024D01*
X142050024Y-56184342D01*
X141935058Y-56356403D01*
X141855870Y-56547579D01*
X141855868Y-56547587D01*
X141815500Y-56750530D01*
X138879766Y-56750530D01*
X138812819Y-56683583D01*
X138779334Y-56622260D01*
X138776500Y-56595902D01*
X138776500Y-56289847D01*
X138796185Y-56222808D01*
X138848989Y-56177053D01*
X138876309Y-56168230D01*
X138892291Y-56165050D01*
X139009497Y-56141737D01*
X139155179Y-56081394D01*
X139286289Y-55993789D01*
X139397789Y-55882289D01*
X139485394Y-55751179D01*
X139545737Y-55605497D01*
X139565825Y-55504507D01*
X139598209Y-55442597D01*
X139658925Y-55408023D01*
X139728694Y-55411762D01*
X139785367Y-55452628D01*
X139790544Y-55459808D01*
X139900022Y-55623655D01*
X140046342Y-55769975D01*
X140046345Y-55769977D01*
X140218402Y-55884941D01*
X140409580Y-55964130D01*
X140558672Y-55993786D01*
X140612530Y-56004499D01*
X140612534Y-56004500D01*
X140612535Y-56004500D01*
X140819466Y-56004500D01*
X140819467Y-56004499D01*
X141022420Y-55964130D01*
X141213598Y-55884941D01*
X141385655Y-55769977D01*
X141531977Y-55623655D01*
X141646941Y-55451598D01*
X141726130Y-55260420D01*
X141766500Y-55057465D01*
X141766500Y-54150535D01*
X141726130Y-53947580D01*
X141646941Y-53756402D01*
X141531977Y-53584345D01*
X141531975Y-53584342D01*
X141385657Y-53438024D01*
X141299626Y-53380541D01*
X141213598Y-53323059D01*
X141022420Y-53243870D01*
X141022412Y-53243868D01*
X140819469Y-53203500D01*
X140819465Y-53203500D01*
X140612535Y-53203500D01*
X140612530Y-53203500D01*
X140409587Y-53243868D01*
X140409579Y-53243870D01*
X140218403Y-53323058D01*
X140046342Y-53438024D01*
X139900024Y-53584342D01*
X139785058Y-53756403D01*
X139705870Y-53947579D01*
X139705868Y-53947587D01*
X139665500Y-54150530D01*
X139665500Y-54853594D01*
X139655960Y-54886082D01*
X139646996Y-54918760D01*
X139646138Y-54919529D01*
X139645815Y-54920633D01*
X139620243Y-54942790D01*
X139595017Y-54965451D01*
X139593879Y-54965635D01*
X139593011Y-54966388D01*
X139559488Y-54971208D01*
X139526047Y-54976627D01*
X139524992Y-54976168D01*
X139523853Y-54976332D01*
X139493035Y-54962258D01*
X139461983Y-54948742D01*
X139460970Y-54947614D01*
X139460297Y-54947307D01*
X139438398Y-54922485D01*
X139397398Y-54861125D01*
X139376520Y-54794448D01*
X139376500Y-54792234D01*
X139376500Y-54276945D01*
X139376500Y-54276943D01*
X139335577Y-54124216D01*
X139328491Y-54111942D01*
X139256524Y-53987290D01*
X139256521Y-53987286D01*
X139256520Y-53987284D01*
X139144716Y-53875480D01*
X139144715Y-53875479D01*
X139140385Y-53871149D01*
X139140374Y-53871139D01*
X137070574Y-51801339D01*
X137037089Y-51740016D01*
X137036638Y-51737849D01*
X137005738Y-51582510D01*
X137005737Y-51582503D01*
X137005735Y-51582498D01*
X136945397Y-51436827D01*
X136945390Y-51436814D01*
X136857789Y-51305711D01*
X136857786Y-51305707D01*
X136746292Y-51194213D01*
X136746288Y-51194210D01*
X136615185Y-51106609D01*
X136615172Y-51106602D01*
X136469501Y-51046264D01*
X136469491Y-51046261D01*
X136336308Y-51019769D01*
X136274397Y-50987384D01*
X136239823Y-50926668D01*
X136236500Y-50898152D01*
X136236500Y-50212945D01*
X136236500Y-50212943D01*
X136195577Y-50060216D01*
X136170916Y-50017501D01*
X136116524Y-49923290D01*
X136116521Y-49923286D01*
X136116520Y-49923284D01*
X136004716Y-49811480D01*
X136004715Y-49811479D01*
X136000385Y-49807149D01*
X136000374Y-49807139D01*
X135962574Y-49769339D01*
X135929089Y-49708016D01*
X135928638Y-49705849D01*
X135897738Y-49550510D01*
X135897737Y-49550503D01*
X135897735Y-49550498D01*
X135837397Y-49404827D01*
X135837390Y-49404814D01*
X135749789Y-49273711D01*
X135749786Y-49273707D01*
X135638292Y-49162213D01*
X135638288Y-49162210D01*
X135507185Y-49074609D01*
X135507172Y-49074602D01*
X135361501Y-49014264D01*
X135361489Y-49014261D01*
X135206845Y-48983500D01*
X135206842Y-48983500D01*
X135049158Y-48983500D01*
X135049155Y-48983500D01*
X134894510Y-49014261D01*
X134894498Y-49014264D01*
X134748827Y-49074602D01*
X134748814Y-49074609D01*
X134617711Y-49162210D01*
X134617707Y-49162213D01*
X134506213Y-49273707D01*
X134506210Y-49273711D01*
X134418609Y-49404814D01*
X134418602Y-49404827D01*
X134358264Y-49550498D01*
X134358261Y-49550510D01*
X134327500Y-49705153D01*
X134327500Y-49862846D01*
X134358261Y-50017489D01*
X134358264Y-50017501D01*
X134418602Y-50163172D01*
X134418609Y-50163185D01*
X134506210Y-50294288D01*
X134506213Y-50294292D01*
X134617707Y-50405786D01*
X134617711Y-50405789D01*
X134748814Y-50493390D01*
X134748827Y-50493397D01*
X134816961Y-50521618D01*
X134894503Y-50553737D01*
X134935691Y-50561929D01*
X134997602Y-50594314D01*
X135032176Y-50655030D01*
X135035500Y-50683547D01*
X135035500Y-52237330D01*
X135035499Y-52237348D01*
X135035499Y-52403054D01*
X135035498Y-52403054D01*
X135076423Y-52555785D01*
X135093716Y-52585737D01*
X135093715Y-52585737D01*
X135093716Y-52585738D01*
X135155475Y-52692709D01*
X135155481Y-52692717D01*
X135274349Y-52811585D01*
X135274355Y-52811590D01*
X136006584Y-53543819D01*
X136040069Y-53605142D01*
X136035085Y-53674834D01*
X135993213Y-53730767D01*
X135927749Y-53755184D01*
X135918903Y-53755500D01*
X134191057Y-53755500D01*
X134032942Y-53755500D01*
X133880215Y-53796423D01*
X133880214Y-53796423D01*
X133880212Y-53796424D01*
X133880209Y-53796425D01*
X133830096Y-53825359D01*
X133830095Y-53825360D01*
X133786689Y-53850420D01*
X133743285Y-53875479D01*
X133743282Y-53875481D01*
X133631480Y-53987283D01*
X133631480Y-53987284D01*
X133631478Y-53987286D01*
X133561656Y-54057108D01*
X133506822Y-54111942D01*
X133445499Y-54145426D01*
X133443333Y-54145877D01*
X133287993Y-54176776D01*
X133287983Y-54176779D01*
X133142312Y-54237117D01*
X133142299Y-54237124D01*
X133011196Y-54324725D01*
X133011192Y-54324728D01*
X132899698Y-54436222D01*
X132899695Y-54436226D01*
X132812094Y-54567329D01*
X132812087Y-54567342D01*
X132751749Y-54713013D01*
X132751746Y-54713025D01*
X132720985Y-54867668D01*
X108704500Y-54867668D01*
X108704500Y-47673153D01*
X130263500Y-47673153D01*
X130263500Y-47830846D01*
X130294261Y-47985489D01*
X130294264Y-47985501D01*
X130354602Y-48131172D01*
X130354609Y-48131185D01*
X130442210Y-48262288D01*
X130442213Y-48262292D01*
X130553707Y-48373786D01*
X130553711Y-48373789D01*
X130684814Y-48461390D01*
X130684827Y-48461397D01*
X130830498Y-48521735D01*
X130830503Y-48521737D01*
X130985153Y-48552499D01*
X130985156Y-48552500D01*
X130985158Y-48552500D01*
X131142844Y-48552500D01*
X131142845Y-48552499D01*
X131297497Y-48521737D01*
X131443179Y-48461394D01*
X131574289Y-48373789D01*
X131685789Y-48262289D01*
X131773394Y-48131179D01*
X131833737Y-47985497D01*
X131853113Y-47888085D01*
X131864638Y-47830150D01*
X131897023Y-47768239D01*
X131898518Y-47766716D01*
X132800416Y-46864819D01*
X132861739Y-46831334D01*
X132888097Y-46828500D01*
X135056234Y-46828500D01*
X135123273Y-46848185D01*
X135125125Y-46849398D01*
X135256814Y-46937390D01*
X135256827Y-46937397D01*
X135402498Y-46997735D01*
X135402503Y-46997737D01*
X135557153Y-47028499D01*
X135557156Y-47028500D01*
X135557158Y-47028500D01*
X135714844Y-47028500D01*
X135714845Y-47028499D01*
X135869497Y-46997737D01*
X136015179Y-46937394D01*
X136146289Y-46849789D01*
X136257789Y-46738289D01*
X136345394Y-46607179D01*
X136405737Y-46461497D01*
X136436500Y-46306842D01*
X136436500Y-46149158D01*
X136436500Y-46149155D01*
X136436499Y-46149153D01*
X136409317Y-46012500D01*
X136405737Y-45994503D01*
X136375456Y-45921397D01*
X136345397Y-45848827D01*
X136345390Y-45848814D01*
X136257789Y-45717711D01*
X136257786Y-45717707D01*
X136146292Y-45606213D01*
X136146288Y-45606210D01*
X136015185Y-45518609D01*
X136015172Y-45518602D01*
X135869501Y-45458264D01*
X135869489Y-45458261D01*
X135714845Y-45427500D01*
X135714842Y-45427500D01*
X135557158Y-45427500D01*
X135557155Y-45427500D01*
X135402510Y-45458261D01*
X135402498Y-45458264D01*
X135256827Y-45518602D01*
X135256814Y-45518609D01*
X135125125Y-45606602D01*
X135058447Y-45627480D01*
X135056234Y-45627500D01*
X132508940Y-45627500D01*
X132468019Y-45638464D01*
X132468019Y-45638465D01*
X132430751Y-45648451D01*
X132356214Y-45668423D01*
X132356209Y-45668426D01*
X132219290Y-45747475D01*
X132219282Y-45747481D01*
X131049339Y-46917425D01*
X130988016Y-46950910D01*
X130985850Y-46951361D01*
X130830508Y-46982261D01*
X130830498Y-46982264D01*
X130684827Y-47042602D01*
X130684814Y-47042609D01*
X130553711Y-47130210D01*
X130553707Y-47130213D01*
X130442213Y-47241707D01*
X130442210Y-47241711D01*
X130354609Y-47372814D01*
X130354602Y-47372827D01*
X130294264Y-47518498D01*
X130294261Y-47518510D01*
X130263500Y-47673153D01*
X108704500Y-47673153D01*
X108704500Y-44260071D01*
X117029499Y-44260071D01*
X117054497Y-44385738D01*
X117054499Y-44385744D01*
X117103533Y-44504124D01*
X117103538Y-44504133D01*
X117174723Y-44610668D01*
X117174726Y-44610672D01*
X117265327Y-44701273D01*
X117265331Y-44701276D01*
X117371866Y-44772461D01*
X117371872Y-44772464D01*
X117371873Y-44772465D01*
X117490256Y-44821501D01*
X117490260Y-44821501D01*
X117490261Y-44821502D01*
X117615928Y-44846500D01*
X117615931Y-44846500D01*
X117744071Y-44846500D01*
X117828615Y-44829682D01*
X117869744Y-44821501D01*
X117962563Y-44783054D01*
X123859498Y-44783054D01*
X123900423Y-44935785D01*
X123917716Y-44965737D01*
X123917715Y-44965737D01*
X123917716Y-44965738D01*
X123979475Y-45072709D01*
X123979481Y-45072717D01*
X124098349Y-45191585D01*
X124098355Y-45191590D01*
X124133425Y-45226660D01*
X124166910Y-45287983D01*
X124167361Y-45290149D01*
X124198261Y-45445491D01*
X124198264Y-45445501D01*
X124258602Y-45591172D01*
X124258609Y-45591185D01*
X124346210Y-45722288D01*
X124346213Y-45722292D01*
X124457707Y-45833786D01*
X124457711Y-45833789D01*
X124588814Y-45921390D01*
X124588827Y-45921397D01*
X124734498Y-45981735D01*
X124734503Y-45981737D01*
X124889153Y-46012499D01*
X124889156Y-46012500D01*
X124889158Y-46012500D01*
X125046844Y-46012500D01*
X125046845Y-46012499D01*
X125201497Y-45981737D01*
X125347179Y-45921394D01*
X125478289Y-45833789D01*
X125589789Y-45722289D01*
X125677394Y-45591179D01*
X125737737Y-45445497D01*
X125768500Y-45290842D01*
X125768500Y-45133158D01*
X125768500Y-45133155D01*
X125768499Y-45133153D01*
X125741317Y-44996500D01*
X125737737Y-44978503D01*
X125707456Y-44905397D01*
X125677397Y-44832827D01*
X125677390Y-44832814D01*
X125589789Y-44701711D01*
X125589786Y-44701707D01*
X125478292Y-44590213D01*
X125478288Y-44590210D01*
X125347185Y-44502609D01*
X125347172Y-44502602D01*
X125201501Y-44442264D01*
X125201492Y-44442261D01*
X125160307Y-44434069D01*
X125098396Y-44401683D01*
X125063823Y-44340967D01*
X125060500Y-44312452D01*
X125060500Y-43551466D01*
X128681813Y-43551466D01*
X128681813Y-43709159D01*
X128712574Y-43863802D01*
X128712577Y-43863814D01*
X128772915Y-44009485D01*
X128772922Y-44009498D01*
X128860523Y-44140601D01*
X128860526Y-44140605D01*
X128972020Y-44252099D01*
X128972024Y-44252102D01*
X129103127Y-44339703D01*
X129103140Y-44339710D01*
X129222184Y-44389019D01*
X129276588Y-44432859D01*
X129289293Y-44456127D01*
X129338604Y-44575176D01*
X129338609Y-44575185D01*
X129426210Y-44706288D01*
X129426213Y-44706292D01*
X129537707Y-44817786D01*
X129537711Y-44817789D01*
X129668814Y-44905390D01*
X129668827Y-44905397D01*
X129814498Y-44965735D01*
X129814503Y-44965737D01*
X129969153Y-44996499D01*
X129969156Y-44996500D01*
X129969158Y-44996500D01*
X130126844Y-44996500D01*
X130126845Y-44996499D01*
X130281497Y-44965737D01*
X130427179Y-44905394D01*
X130427185Y-44905390D01*
X130558875Y-44817398D01*
X130625553Y-44796520D01*
X130627766Y-44796500D01*
X131485331Y-44796500D01*
X131485347Y-44796501D01*
X131492943Y-44796501D01*
X131651054Y-44796501D01*
X131651057Y-44796501D01*
X131803785Y-44755577D01*
X131853904Y-44726639D01*
X131940716Y-44676520D01*
X132052520Y-44564716D01*
X132052520Y-44564714D01*
X132062728Y-44554507D01*
X132062729Y-44554504D01*
X132602662Y-44014572D01*
X132663983Y-43981089D01*
X132666150Y-43980638D01*
X132724085Y-43969113D01*
X132821497Y-43949737D01*
X132967179Y-43889394D01*
X133098289Y-43801789D01*
X133209789Y-43690289D01*
X133297394Y-43559179D01*
X133357737Y-43413497D01*
X133388500Y-43258842D01*
X133388500Y-43101158D01*
X133388500Y-43101155D01*
X133388499Y-43101153D01*
X133370074Y-43008524D01*
X133357737Y-42946503D01*
X133322145Y-42860576D01*
X133297397Y-42800827D01*
X133297390Y-42800814D01*
X133209789Y-42669711D01*
X133209786Y-42669707D01*
X133098292Y-42558213D01*
X133098288Y-42558210D01*
X132967185Y-42470609D01*
X132967172Y-42470602D01*
X132821501Y-42410264D01*
X132821491Y-42410261D01*
X132796800Y-42405350D01*
X132734889Y-42372965D01*
X132706431Y-42331185D01*
X132686840Y-42283889D01*
X132686838Y-42283883D01*
X132686836Y-42283881D01*
X132686836Y-42283879D01*
X132599233Y-42152773D01*
X132599230Y-42152769D01*
X132487736Y-42041275D01*
X132487732Y-42041272D01*
X132356629Y-41953671D01*
X132356616Y-41953664D01*
X132210945Y-41893326D01*
X132210933Y-41893323D01*
X132056289Y-41862562D01*
X132056286Y-41862562D01*
X131898602Y-41862562D01*
X131898599Y-41862562D01*
X131743954Y-41893323D01*
X131743942Y-41893326D01*
X131598271Y-41953664D01*
X131598258Y-41953671D01*
X131467155Y-42041272D01*
X131467151Y-42041275D01*
X131355657Y-42152769D01*
X131355654Y-42152773D01*
X131268053Y-42283876D01*
X131268046Y-42283889D01*
X131207708Y-42429560D01*
X131207705Y-42429572D01*
X131176944Y-42584215D01*
X131176944Y-42741908D01*
X131197711Y-42846309D01*
X131191484Y-42915900D01*
X131148621Y-42971078D01*
X131082731Y-42994322D01*
X131076094Y-42994500D01*
X130009229Y-42994500D01*
X129942190Y-42974815D01*
X129940338Y-42973602D01*
X129861489Y-42920917D01*
X129715814Y-42860577D01*
X129715802Y-42860574D01*
X129561158Y-42829813D01*
X129561155Y-42829813D01*
X129403471Y-42829813D01*
X129403468Y-42829813D01*
X129248823Y-42860574D01*
X129248811Y-42860577D01*
X129103140Y-42920915D01*
X129103127Y-42920922D01*
X128972024Y-43008523D01*
X128972020Y-43008526D01*
X128860526Y-43120020D01*
X128860523Y-43120024D01*
X128772922Y-43251127D01*
X128772915Y-43251140D01*
X128712577Y-43396811D01*
X128712574Y-43396823D01*
X128681813Y-43551466D01*
X125060500Y-43551466D01*
X125060500Y-40940097D01*
X125069144Y-40910656D01*
X125075668Y-40880670D01*
X125079422Y-40875654D01*
X125080185Y-40873058D01*
X125096819Y-40852416D01*
X125180416Y-40768819D01*
X125241739Y-40735334D01*
X125268097Y-40732500D01*
X126152735Y-40732500D01*
X126219774Y-40752185D01*
X126265529Y-40804989D01*
X126274352Y-40832308D01*
X126295526Y-40938756D01*
X126295529Y-40938766D01*
X126355867Y-41084437D01*
X126355874Y-41084450D01*
X126443475Y-41215553D01*
X126443478Y-41215557D01*
X126554972Y-41327051D01*
X126554976Y-41327054D01*
X126686079Y-41414655D01*
X126686092Y-41414662D01*
X126831763Y-41475000D01*
X126831768Y-41475002D01*
X126986418Y-41505764D01*
X126986421Y-41505765D01*
X126986423Y-41505765D01*
X127144109Y-41505765D01*
X127144110Y-41505764D01*
X127298762Y-41475002D01*
X127444444Y-41414659D01*
X127575554Y-41327054D01*
X127687054Y-41215554D01*
X127774659Y-41084444D01*
X127835002Y-40938762D01*
X127865765Y-40784107D01*
X127865765Y-40626423D01*
X127865765Y-40626420D01*
X127865764Y-40626418D01*
X127835002Y-40471768D01*
X127808678Y-40408215D01*
X127774662Y-40326092D01*
X127774655Y-40326079D01*
X127687054Y-40194976D01*
X127687051Y-40194972D01*
X127575557Y-40083478D01*
X127575553Y-40083475D01*
X127444450Y-39995874D01*
X127444437Y-39995867D01*
X127298766Y-39935529D01*
X127298756Y-39935526D01*
X127143414Y-39904626D01*
X127126657Y-39895860D01*
X127108179Y-39891841D01*
X127083142Y-39873098D01*
X127081503Y-39872241D01*
X127079925Y-39870690D01*
X126979590Y-39770355D01*
X126979588Y-39770352D01*
X126860717Y-39651481D01*
X126860716Y-39651480D01*
X126773904Y-39601360D01*
X126773904Y-39601359D01*
X126773900Y-39601358D01*
X126723785Y-39572423D01*
X126571057Y-39531499D01*
X126412943Y-39531499D01*
X126405347Y-39531499D01*
X126405331Y-39531500D01*
X124888940Y-39531500D01*
X124848019Y-39542464D01*
X124848019Y-39542465D01*
X124810751Y-39552451D01*
X124736214Y-39572423D01*
X124736209Y-39572426D01*
X124599290Y-39651475D01*
X124599282Y-39651481D01*
X123979481Y-40271282D01*
X123979479Y-40271285D01*
X123941801Y-40336547D01*
X123941800Y-40336549D01*
X123900423Y-40408214D01*
X123900423Y-40408215D01*
X123859499Y-40560943D01*
X123859499Y-40719057D01*
X123859499Y-40719059D01*
X123859500Y-40729053D01*
X123859500Y-44617330D01*
X123859499Y-44617348D01*
X123859499Y-44783054D01*
X123859498Y-44783054D01*
X117962563Y-44783054D01*
X117988127Y-44772465D01*
X118094669Y-44701276D01*
X118185276Y-44610669D01*
X118256465Y-44504127D01*
X118305501Y-44385744D01*
X118330500Y-44260069D01*
X118330500Y-44131931D01*
X118330500Y-44131928D01*
X118305502Y-44006261D01*
X118305501Y-44006260D01*
X118305501Y-44006256D01*
X118257095Y-43889394D01*
X118256466Y-43887875D01*
X118256461Y-43887866D01*
X118185276Y-43781331D01*
X118185273Y-43781327D01*
X118094672Y-43690726D01*
X118094668Y-43690723D01*
X117988133Y-43619538D01*
X117988124Y-43619533D01*
X117869744Y-43570499D01*
X117869738Y-43570497D01*
X117744071Y-43545500D01*
X117744069Y-43545500D01*
X117615931Y-43545500D01*
X117615929Y-43545500D01*
X117490261Y-43570497D01*
X117490255Y-43570499D01*
X117371875Y-43619533D01*
X117371866Y-43619538D01*
X117265331Y-43690723D01*
X117265327Y-43690726D01*
X117174726Y-43781327D01*
X117174723Y-43781331D01*
X117103538Y-43887866D01*
X117103533Y-43887875D01*
X117054499Y-44006255D01*
X117054497Y-44006261D01*
X117029500Y-44131928D01*
X117029500Y-44131931D01*
X117029500Y-44260069D01*
X117029500Y-44260071D01*
X117029499Y-44260071D01*
X108704500Y-44260071D01*
X108704500Y-34152500D01*
X108724185Y-34085461D01*
X108776989Y-34039706D01*
X108828500Y-34028500D01*
X152747819Y-34028500D01*
X152749212Y-34028508D01*
G37*
%TD.AperFunction*%
%TD*%
M02*
