M48
; DRILL file {KiCad 9.0.7} date 2026-04-28T14:55:01-0600
; FORMAT={-:-/ absolute / metric / decimal}
; #@! TF.CreationDate,2026-04-28T14:55:01-06:00
; #@! TF.GenerationSoftware,Kicad,Pcbnew,9.0.7
; #@! TF.FileFunction,Plated,1,2,PTH
FMAT,2
METRIC
; #@! TA.AperFunction,Plated,PTH,ViaDrill
T1C0.300
; #@! TA.AperFunction,Plated,PTH,ComponentDrill
T2C0.500
%
G90
G05
T1
X124.968Y-45.212
X127.065Y-40.705
X129.482Y-43.63
X130.048Y-44.196
X130.048Y-51.308
X131.064Y-47.752
X131.861Y-51.899
X131.977Y-42.663
X132.588Y-43.18
X133.521Y-54.947
X135.128Y-49.784
X135.636Y-46.228
X136.236Y-51.816
X136.652Y-54.356
X138.684Y-65.024
X138.684Y-67.564
X138.776Y-55.372
X139.7Y-58.004
T2
G00X140.716Y-54.954
M15
G01X140.716Y-54.254
M16
G05
G00X140.716Y-60.554
M15
G01X140.716Y-59.854
M16
G05
G00X142.866Y-57.954
M15
G01X142.866Y-56.854
M16
G05
M30
